<svg xmlns="http://www.w3.org/2000/svg" xmlns:xlink="http://www.w3.org/1999/xlink" width="86" zoomAndPan="magnify" viewBox="0 0 64.5 71.249999" height="95" preserveAspectRatio="xMidYMid meet" version="1.0"><defs><clipPath id="be5e3a4bcb"><path d="M 2 0.324219 L 63.578125 0.324219 L 63.578125 70.089844 L 2 70.089844 Z M 2 0.324219 " clip-rule="nonzero"/></clipPath></defs><g clip-path="url(#be5e3a4bcb)"><path fill="#7a8969" d="M 38.539062 46.460938 C 38.304688 46.871094 38.136719 47.1875 37.953125 47.496094 C 35.917969 50.867188 33.925781 54.265625 31.832031 57.601562 C 30.503906 59.71875 28.933594 61.675781 27.160156 63.441406 C 26.117188 64.476562 25.023438 65.496094 23.804688 66.300781 C 17.660156 70.363281 10.230469 67.191406 6.574219 61.453125 C 0.570312 52.03125 1.617188 38.304688 7.539062 29.101562 C 9.367188 26.257812 11.519531 23.671875 13.777344 21.167969 C 13.996094 20.921875 14.210938 20.675781 14.445312 20.410156 C 14.28125 20.082031 14.136719 19.789062 13.992188 19.492188 C 12.910156 17.257812 12.117188 14.945312 11.878906 12.449219 C 11.328125 6.785156 15.136719 1.644531 20.722656 0.605469 C 22.183594 0.332031 23.660156 0.351562 25.109375 0.703125 C 28.488281 1.527344 30.28125 4.238281 29.738281 7.671875 C 29.550781 8.871094 29.144531 9.996094 28.605469 11.078125 C 27.765625 12.757812 26.707031 14.292969 25.503906 15.722656 C 24.054688 17.449219 22.566406 19.144531 21.09375 20.859375 C 20.902344 21.082031 20.714844 21.3125 20.460938 21.621094 C 25.070312 28.957031 30.761719 35.304688 37.335938 41.042969 C 37.578125 40.707031 37.769531 40.453125 37.945312 40.191406 C 39.316406 38.160156 40.859375 36.277344 42.722656 34.683594 C 47.125 30.898438 52.097656 30.015625 57.546875 31.933594 C 60.757812 33.0625 63.597656 36.367188 63.648438 39.898438 C 63.683594 42.054688 62.242188 42.933594 60.386719 43.347656 C 59.226562 43.605469 58.050781 43.546875 56.90625 43.21875 C 56.503906 43.105469 56.109375 42.925781 55.765625 42.695312 C 55.042969 42.222656 54.90625 41.585938 55.296875 40.820312 C 55.460938 40.5 55.671875 40.199219 55.796875 39.863281 C 56.4375 38.171875 56.214844 36.535156 55.332031 35.003906 C 54.515625 33.585938 52.664062 32.804688 51.0625 33.113281 C 49.453125 33.421875 48.082031 34.222656 46.832031 35.234375 C 44.078125 37.464844 42.007812 40.25 40.257812 43.394531 C 40.511719 43.609375 40.746094 43.835938 41 44.027344 C 42.710938 45.300781 44.429688 46.570312 46.148438 47.839844 C 48.285156 49.425781 50.246094 51.191406 51.78125 53.386719 C 53.109375 55.285156 54.105469 57.324219 54.445312 59.640625 C 54.878906 62.585938 54.207031 65.261719 52.339844 67.597656 C 51.199219 69.027344 49.703125 69.847656 47.875 70.050781 C 45.398438 70.324219 43.0625 69.902344 40.980469 68.507812 C 39.097656 67.253906 38.042969 65.511719 38.292969 63.164062 C 38.402344 62.085938 38.859375 61.144531 39.582031 60.335938 C 40.320312 59.515625 41.265625 59.210938 42.351562 59.335938 C 43.125 59.425781 43.257812 59.632812 43.039062 60.410156 C 42.484375 62.347656 42.648438 64.21875 43.546875 66.023438 C 44.09375 67.121094 44.960938 67.871094 46.101562 68.316406 C 46.882812 68.621094 47.660156 68.621094 48.335938 68.113281 C 48.976562 67.628906 49.644531 67.125 50.128906 66.496094 C 51.902344 64.207031 52.445312 61.65625 51.5 58.855469 C 50.984375 57.324219 50.25 55.90625 49.191406 54.699219 C 48.265625 53.636719 47.28125 52.609375 46.234375 51.667969 C 43.9375 49.605469 41.207031 48.171875 38.539062 46.460938 Z M 17.460938 25.933594 C 17.113281 25.964844 16.703125 26.222656 16.171875 26.8125 C 14.996094 28.117188 13.960938 29.5625 13.046875 31.0625 C 11.160156 34.160156 9.828125 37.601562 9.160156 41.171875 C 8.054688 47.117188 8.796875 53.394531 11.269531 58.914062 C 12.207031 61.003906 13.40625 63.015625 15.082031 64.574219 C 15.757812 65.203125 16.558594 65.777344 17.480469 65.867188 C 21.210938 66.230469 25.265625 60.050781 27.179688 57.507812 C 30.105469 53.617188 33.621094 48.851562 35.351562 44.273438 C 35.375 44.21875 27.953125 37.636719 27.296875 36.96875 C 24.585938 34.21875 22.039062 31.308594 19.671875 28.261719 C 18.75 27.074219 18.273438 25.871094 17.460938 25.933594 Z M 18.15625 16.394531 C 18.316406 16.308594 18.410156 16.285156 18.46875 16.226562 C 20.140625 14.585938 21.804688 12.929688 23.171875 11.019531 C 23.910156 9.992188 24.574219 8.921875 24.996094 7.714844 C 25.300781 6.851562 25.429688 5.96875 25.316406 5.058594 C 25.203125 4.191406 24.835938 3.457031 24.109375 2.925781 C 23.523438 2.503906 22.941406 2.410156 22.269531 2.773438 C 21.078125 3.417969 20.128906 4.3125 19.351562 5.402344 C 16.914062 8.8125 16.882812 12.492188 18.15625 16.394531 Z M 18.15625 16.394531 " fill-opacity="1" fill-rule="nonzero"/><path fill="#7a8969" d="M 38.539062 46.460938 C 38.304688 46.871094 38.136719 47.1875 37.953125 47.496094 C 35.917969 50.867188 33.925781 54.265625 31.832031 57.601562 C 30.503906 59.71875 28.933594 61.675781 27.160156 63.441406 C 26.117188 64.476562 25.023438 65.496094 23.804688 66.300781 C 17.660156 70.363281 10.230469 67.191406 6.574219 61.453125 C 0.570312 52.03125 1.617188 38.304688 7.539062 29.101562 C 9.367188 26.257812 11.519531 23.671875 13.777344 21.167969 C 13.996094 20.921875 14.210938 20.675781 14.445312 20.410156 C 14.28125 20.082031 14.136719 19.789062 13.992188 19.492188 C 12.910156 17.257812 12.117188 14.945312 11.878906 12.449219 C 11.328125 6.785156 15.136719 1.644531 20.722656 0.605469 C 22.183594 0.332031 23.660156 0.351562 25.109375 0.703125 C 28.488281 1.527344 30.28125 4.238281 29.738281 7.671875 C 29.550781 8.871094 29.144531 9.996094 28.605469 11.078125 C 27.765625 12.757812 26.707031 14.292969 25.503906 15.722656 C 24.054688 17.449219 22.566406 19.144531 21.09375 20.859375 C 20.902344 21.082031 20.714844 21.3125 20.460938 21.621094 C 25.070312 28.957031 30.761719 35.304688 37.335938 41.042969 C 37.578125 40.707031 37.769531 40.453125 37.945312 40.191406 C 39.316406 38.160156 40.859375 36.277344 42.722656 34.683594 C 47.125 30.898438 52.097656 30.015625 57.546875 31.933594 C 60.757812 33.0625 63.597656 36.367188 63.648438 39.898438 C 63.683594 42.054688 62.242188 42.933594 60.386719 43.347656 C 59.226562 43.605469 58.050781 43.546875 56.90625 43.21875 C 56.503906 43.105469 56.109375 42.925781 55.765625 42.695312 C 55.042969 42.222656 54.90625 41.585938 55.296875 40.820312 C 55.460938 40.5 55.671875 40.199219 55.796875 39.863281 C 56.4375 38.171875 56.214844 36.535156 55.332031 35.003906 C 54.515625 33.585938 52.664062 32.804688 51.0625 33.113281 C 49.453125 33.421875 48.082031 34.222656 46.832031 35.234375 C 44.078125 37.464844 42.007812 40.25 40.257812 43.394531 C 40.511719 43.609375 40.746094 43.835938 41 44.027344 C 42.710938 45.300781 44.429688 46.570312 46.148438 47.839844 C 48.285156 49.425781 50.246094 51.191406 51.78125 53.386719 C 53.109375 55.285156 54.105469 57.324219 54.445312 59.640625 C 54.878906 62.585938 54.207031 65.261719 52.339844 67.597656 C 51.199219 69.027344 49.703125 69.847656 47.875 70.050781 C 45.398438 70.324219 43.0625 69.902344 40.980469 68.507812 C 39.097656 67.253906 38.042969 65.511719 38.292969 63.164062 C 38.402344 62.085938 38.859375 61.144531 39.582031 60.335938 C 40.320312 59.515625 41.265625 59.210938 42.351562 59.335938 C 43.125 59.425781 43.257812 59.632812 43.039062 60.410156 C 42.484375 62.347656 42.648438 64.21875 43.546875 66.023438 C 44.09375 67.121094 44.960938 67.871094 46.101562 68.316406 C 46.882812 68.621094 47.660156 68.621094 48.335938 68.113281 C 48.976562 67.628906 49.644531 67.125 50.128906 66.496094 C 51.902344 64.207031 52.445312 61.65625 51.5 58.855469 C 50.984375 57.324219 50.25 55.90625 49.191406 54.699219 C 48.265625 53.636719 47.28125 52.609375 46.234375 51.667969 C 43.9375 49.605469 41.207031 48.171875 38.539062 46.460938 Z M 17.460938 25.933594 C 17.113281 25.964844 16.703125 26.222656 16.171875 26.8125 C 14.996094 28.117188 13.960938 29.5625 13.046875 31.0625 C 11.160156 34.160156 9.828125 37.601562 9.160156 41.171875 C 8.054688 47.117188 8.796875 53.394531 11.269531 58.914062 C 12.207031 61.003906 13.40625 63.015625 15.082031 64.574219 C 15.757812 65.203125 16.558594 65.777344 17.480469 65.867188 C 21.210938 66.230469 25.265625 60.050781 27.179688 57.507812 C 30.105469 53.617188 33.621094 48.851562 35.351562 44.273438 C 35.375 44.21875 27.953125 37.636719 27.296875 36.96875 C 24.585938 34.21875 22.039062 31.308594 19.671875 28.261719 C 18.75 27.074219 18.273438 25.871094 17.460938 25.933594 Z M 18.15625 16.394531 C 18.316406 16.308594 18.410156 16.285156 18.46875 16.226562 C 20.140625 14.585938 21.804688 12.929688 23.171875 11.019531 C 23.910156 9.992188 24.574219 8.921875 24.996094 7.714844 C 25.300781 6.851562 25.429688 5.96875 25.316406 5.058594 C 25.203125 4.191406 24.835938 3.457031 24.109375 2.925781 C 23.523438 2.503906 22.941406 2.410156 22.269531 2.773438 C 21.078125 3.417969 20.128906 4.3125 19.351562 5.402344 C 16.914062 8.8125 16.882812 12.492188 18.15625 16.394531 Z M 18.15625 16.394531 " fill-opacity="1" fill-rule="nonzero"/></g></svg>