<svg xmlns="http://www.w3.org/2000/svg" xmlns:xlink="http://www.w3.org/1999/xlink" width="93" zoomAndPan="magnify" viewBox="0 0 69.75 60.75" height="93" preserveAspectRatio="xMidYMid meet" version="1.0"><defs><clipPath id="d7f77a12a4"><path d="M 0.714844 0.0117188 L 69.433594 0.0117188 L 69.433594 59.765625 L 0.714844 59.765625 Z M 0.714844 0.0117188 " clip-rule="nonzero"/></clipPath></defs><g clip-path="url(#d7f77a12a4)"><path fill="#faf6f6" d="M 68.957031 0.921875 C 67.871094 0.640625 66.785156 0.359375 65.699219 0.078125 C 65.617188 0.03125 65.511719 0.0117188 65.390625 0.0351562 C 65.335938 0.0390625 65.285156 0.0546875 65.238281 0.078125 C 65.027344 0.144531 64.820312 0.222656 64.613281 0.296875 C 63.90625 0.558594 63.210938 0.847656 62.523438 1.152344 C 61.492188 1.613281 60.480469 2.113281 59.488281 2.644531 C 58.15625 3.355469 56.859375 4.125 55.59375 4.9375 C 54.015625 5.953125 52.488281 7.035156 51.015625 8.175781 C 49.296875 9.507812 47.652344 10.917969 46.085938 12.394531 C 44.277344 14.097656 42.566406 15.886719 40.960938 17.75 C 39.132812 19.863281 37.433594 22.066406 35.855469 24.339844 C 34.082031 26.90625 32.464844 29.566406 30.996094 32.289062 C 29.34375 35.359375 27.878906 38.511719 26.585938 41.722656 C 26.335938 42.347656 26.089844 42.972656 25.851562 43.601562 C 25.015625 42.953125 24.179688 42.300781 23.347656 41.652344 C 21.160156 39.949219 18.96875 38.242188 16.78125 36.539062 C 14.769531 34.972656 12.761719 33.40625 10.75 31.839844 C 10.238281 31.441406 9.726562 31.042969 9.214844 30.644531 C 9.085938 30.542969 8.972656 30.445312 8.808594 30.382812 C 8.300781 30.195312 7.777344 29.945312 7.25 29.8125 C 7.050781 29.761719 6.796875 29.832031 6.59375 29.863281 C 6.242188 29.917969 5.890625 29.96875 5.535156 30.023438 C 5.3125 30.058594 5.011719 30.058594 4.828125 30.1875 C 4.726562 30.261719 4.675781 30.351562 4.617188 30.453125 C 4.050781 31.375 3.488281 32.296875 2.925781 33.21875 C 2.296875 34.246094 1.667969 35.273438 1.039062 36.300781 C 0.890625 36.539062 0.722656 36.738281 0.773438 37.027344 C 0.835938 37.367188 0.90625 37.699219 0.972656 38.035156 C 1.226562 39.320312 1.476562 40.605469 1.730469 41.886719 C 1.804688 42.28125 1.867188 42.683594 1.960938 43.078125 C 2.019531 43.308594 2.1875 43.425781 2.417969 43.511719 C 2.617188 43.585938 2.8125 43.65625 3.011719 43.734375 C 3.082031 43.757812 3.152344 43.785156 3.222656 43.8125 C 3.261719 43.828125 3.300781 43.84375 3.335938 43.859375 C 3.359375 43.867188 3.378906 43.871094 3.398438 43.878906 C 3.402344 43.882812 3.402344 43.882812 3.40625 43.882812 C 3.605469 43.960938 3.804688 44.039062 4.003906 44.117188 C 5.128906 44.566406 6.25 45.03125 7.359375 45.515625 C 10.6875 46.96875 13.945312 48.570312 17.085938 50.34375 C 20.785156 52.433594 24.347656 54.761719 27.507812 57.5 C 28.265625 58.15625 29 58.835938 29.699219 59.542969 C 29.945312 59.789062 30.449219 59.667969 30.523438 59.34375 C 30.625 58.929688 30.734375 58.519531 30.847656 58.109375 C 31.15625 56.964844 31.492188 55.832031 31.847656 54.699219 C 32.386719 52.976562 32.972656 51.265625 33.59375 49.566406 C 34.378906 47.410156 35.230469 45.269531 36.140625 43.152344 C 37.183594 40.71875 38.3125 38.316406 39.53125 35.949219 C 40.867188 33.355469 42.308594 30.804688 43.875 28.316406 C 45.503906 25.722656 47.261719 23.195312 49.175781 20.769531 C 51.121094 18.304688 53.230469 15.945312 55.523438 13.738281 C 57.820312 11.53125 60.296875 9.472656 62.972656 7.660156 C 64.324219 6.742188 65.726562 5.886719 67.171875 5.101562 C 67.503906 4.921875 68.003906 4.761719 68.160156 4.421875 C 68.210938 4.308594 68.25 4.1875 68.296875 4.070312 C 68.503906 3.535156 68.710938 3 68.917969 2.464844 C 69.046875 2.136719 69.175781 1.804688 69.300781 1.476562 C 69.390625 1.246094 69.199219 0.984375 68.957031 0.921875 " fill-opacity="1" fill-rule="nonzero"/><path fill="#faf6f6" d="M 68.957031 0.921875 C 67.871094 0.640625 66.785156 0.359375 65.699219 0.078125 C 65.617188 0.03125 65.511719 0.0117188 65.390625 0.0351562 C 65.335938 0.0390625 65.285156 0.0546875 65.238281 0.078125 C 65.027344 0.144531 64.820312 0.222656 64.613281 0.296875 C 63.90625 0.558594 63.210938 0.847656 62.523438 1.152344 C 61.492188 1.613281 60.480469 2.113281 59.488281 2.644531 C 58.15625 3.355469 56.859375 4.125 55.59375 4.9375 C 54.015625 5.953125 52.488281 7.035156 51.015625 8.175781 C 49.296875 9.507812 47.652344 10.917969 46.085938 12.394531 C 44.277344 14.097656 42.566406 15.886719 40.960938 17.75 C 39.132812 19.863281 37.433594 22.066406 35.855469 24.339844 C 34.082031 26.90625 32.464844 29.566406 30.996094 32.289062 C 29.34375 35.359375 27.878906 38.511719 26.585938 41.722656 C 26.335938 42.347656 26.089844 42.972656 25.851562 43.601562 C 25.015625 42.953125 24.179688 42.300781 23.347656 41.652344 C 21.160156 39.949219 18.96875 38.242188 16.78125 36.539062 C 14.769531 34.972656 12.761719 33.40625 10.75 31.839844 C 10.238281 31.441406 9.726562 31.042969 9.214844 30.644531 C 9.085938 30.542969 8.972656 30.445312 8.808594 30.382812 C 8.300781 30.195312 7.777344 29.945312 7.25 29.8125 C 7.050781 29.761719 6.796875 29.832031 6.59375 29.863281 C 6.242188 29.917969 5.890625 29.96875 5.535156 30.023438 C 5.3125 30.058594 5.011719 30.058594 4.828125 30.1875 C 4.726562 30.261719 4.675781 30.351562 4.617188 30.453125 C 4.050781 31.375 3.488281 32.296875 2.925781 33.21875 C 2.296875 34.246094 1.667969 35.273438 1.039062 36.300781 C 0.890625 36.539062 0.722656 36.738281 0.773438 37.027344 C 0.835938 37.367188 0.90625 37.699219 0.972656 38.035156 C 1.226562 39.320312 1.476562 40.605469 1.730469 41.886719 C 1.804688 42.28125 1.867188 42.683594 1.960938 43.078125 C 2.019531 43.308594 2.1875 43.425781 2.417969 43.511719 C 2.617188 43.585938 2.8125 43.65625 3.011719 43.734375 C 3.082031 43.757812 3.152344 43.785156 3.222656 43.8125 C 3.261719 43.828125 3.300781 43.84375 3.335938 43.859375 C 3.359375 43.867188 3.378906 43.871094 3.398438 43.878906 C 3.402344 43.882812 3.402344 43.882812 3.40625 43.882812 C 3.605469 43.960938 3.804688 44.039062 4.003906 44.117188 C 5.128906 44.566406 6.25 45.03125 7.359375 45.515625 C 10.6875 46.96875 13.945312 48.570312 17.085938 50.34375 C 20.785156 52.433594 24.347656 54.761719 27.507812 57.5 C 28.265625 58.15625 29 58.835938 29.699219 59.542969 C 29.945312 59.789062 30.449219 59.667969 30.523438 59.34375 C 30.625 58.929688 30.734375 58.519531 30.847656 58.109375 C 31.15625 56.964844 31.492188 55.832031 31.847656 54.699219 C 32.386719 52.976562 32.972656 51.265625 33.59375 49.566406 C 34.378906 47.410156 35.230469 45.269531 36.140625 43.152344 C 37.183594 40.71875 38.3125 38.316406 39.53125 35.949219 C 40.867188 33.355469 42.308594 30.804688 43.875 28.316406 C 45.503906 25.722656 47.261719 23.195312 49.175781 20.769531 C 51.121094 18.304688 53.230469 15.945312 55.523438 13.738281 C 57.820312 11.53125 60.296875 9.472656 62.972656 7.660156 C 64.324219 6.742188 65.726562 5.886719 67.171875 5.101562 C 67.503906 4.921875 68.003906 4.761719 68.160156 4.421875 C 68.210938 4.308594 68.25 4.1875 68.296875 4.070312 C 68.503906 3.535156 68.710938 3 68.917969 2.464844 C 69.046875 2.136719 69.175781 1.804688 69.300781 1.476562 C 69.390625 1.246094 69.199219 0.984375 68.957031 0.921875 " fill-opacity="1" fill-rule="nonzero"/></g></svg>