<svg xmlns="http://www.w3.org/2000/svg" xmlns:xlink="http://www.w3.org/1999/xlink" width="208" zoomAndPan="magnify" viewBox="0 0 156 150.749998" height="201" preserveAspectRatio="xMidYMid meet" version="1.0"><defs><clipPath id="2302c4e19a"><path d="M 34 4 L 111 4 L 111 137 L 34 137 Z M 34 4 " clip-rule="nonzero"/></clipPath><clipPath id="6bcd7b8229"><path d="M 0.171875 69.863281 L 56.980469 0.25 L 155.601562 80.730469 L 98.792969 150.34375 Z M 0.171875 69.863281 " clip-rule="nonzero"/></clipPath><clipPath id="f7ef193589"><path d="M 0.171875 69.863281 L 56.980469 0.25 L 155.601562 80.730469 L 98.792969 150.34375 Z M 0.171875 69.863281 " clip-rule="nonzero"/></clipPath><clipPath id="e4a7bd8c98"><path d="M 66 31 L 67 31 L 67 32 L 66 32 Z M 66 31 " clip-rule="nonzero"/></clipPath><clipPath id="167cc12a82"><path d="M 0.171875 69.863281 L 56.980469 0.25 L 155.601562 80.730469 L 98.792969 150.34375 Z M 0.171875 69.863281 " clip-rule="nonzero"/></clipPath><clipPath id="7daca8b8ab"><path d="M 0.171875 69.863281 L 56.980469 0.25 L 155.601562 80.730469 L 98.792969 150.34375 Z M 0.171875 69.863281 " clip-rule="nonzero"/></clipPath><clipPath id="08f1abb617"><path d="M 34 4 L 111 4 L 111 137 L 34 137 Z M 34 4 " clip-rule="nonzero"/></clipPath><clipPath id="b3541fa68d"><path d="M 0.171875 69.863281 L 56.980469 0.25 L 155.601562 80.730469 L 98.792969 150.34375 Z M 0.171875 69.863281 " clip-rule="nonzero"/></clipPath><clipPath id="e17699787f"><path d="M 0.171875 69.863281 L 56.980469 0.25 L 155.601562 80.730469 L 98.792969 150.34375 Z M 0.171875 69.863281 " clip-rule="nonzero"/></clipPath><clipPath id="f9986aa975"><path d="M 66 31 L 67 31 L 67 32 L 66 32 Z M 66 31 " clip-rule="nonzero"/></clipPath><clipPath id="3d099fbd96"><path d="M 0.171875 69.863281 L 56.980469 0.25 L 155.601562 80.730469 L 98.792969 150.34375 Z M 0.171875 69.863281 " clip-rule="nonzero"/></clipPath><clipPath id="d8ea87488d"><path d="M 0.171875 69.863281 L 56.980469 0.25 L 155.601562 80.730469 L 98.792969 150.34375 Z M 0.171875 69.863281 " clip-rule="nonzero"/></clipPath></defs><g clip-path="url(#2302c4e19a)"><g clip-path="url(#6bcd7b8229)"><g clip-path="url(#f7ef193589)"><path fill="#b9bfa7" d="M 62.375 4.609375 C 62.109375 4.46875 61.816406 4.457031 61.574219 4.5625 C 61.335938 4.671875 61.175781 4.773438 60.980469 4.917969 C 60.710938 5.15625 60.453125 5.476562 60.183594 5.710938 C 59.578125 6.359375 58.980469 7.089844 58.421875 7.777344 C 58.121094 8.140625 57.777344 8.46875 57.480469 8.835938 C 57.441406 8.882812 57.40625 8.925781 57.367188 8.972656 C 57.109375 9.292969 56.847656 9.613281 56.621094 9.886719 C 55.988281 10.664062 55.484375 11.46875 54.894531 12.285156 C 54.269531 13.144531 53.683594 13.957031 53.191406 14.929688 C 52.734375 15.773438 52.238281 16.660156 51.867188 17.578125 C 51.625 18.0625 51.425781 18.585938 51.308594 19.101562 C 51.1875 19.535156 51.101562 19.917969 51.058594 20.34375 C 50.902344 21.28125 50.746094 22.21875 50.636719 23.195312 C 50.515625 24.085938 50.359375 25.023438 50.242188 25.917969 C 50.128906 26.894531 50.0625 27.90625 50.035156 28.871094 C 49.964844 29.800781 49.933594 30.769531 49.992188 31.726562 C 50.039062 32.226562 50.089844 32.722656 50.140625 33.222656 C 50.191406 33.71875 50.207031 34.261719 50.300781 34.796875 C 50.265625 34.84375 50.265625 34.84375 50.273438 34.925781 C 50.253906 35.136719 50.230469 35.351562 50.210938 35.5625 L 50.183594 35.691406 C 50.160156 35.902344 50.148438 36.195312 50.128906 36.410156 L 50.136719 36.492188 L 50.074219 37.503906 L 50.011719 38.140625 C 49.953125 39.234375 49.945312 40.367188 49.949219 41.667969 C 49.957031 41.75 49.964844 41.832031 49.972656 41.914062 C 49.921875 41.796875 49.902344 41.628906 49.847656 41.507812 C 49.722656 41.101562 49.597656 40.695312 49.519531 40.328125 C 49.394531 39.921875 49.308594 39.46875 49.183594 39.0625 C 49.058594 38.65625 48.886719 38.210938 48.761719 37.804688 C 48.589844 37.359375 48.457031 36.871094 48.332031 36.464844 C 48.027344 35.53125 47.6875 34.644531 47.261719 33.765625 C 47.054688 33.367188 46.761719 32.976562 46.519531 32.625 C 46.226562 32.234375 45.9375 31.84375 45.644531 31.457031 C 45.355469 31.066406 44.980469 30.683594 44.652344 30.339844 C 44.371094 30.035156 44.003906 29.734375 43.722656 29.429688 C 43.074219 28.824219 42.34375 28.226562 41.65625 27.667969 C 41.246094 27.332031 40.878906 27.035156 40.46875 26.699219 C 40.101562 26.398438 39.699219 26.148438 39.335938 25.847656 C 38.96875 25.550781 38.640625 25.207031 38.191406 24.917969 C 37.925781 24.777344 37.632812 24.761719 37.34375 24.835938 C 37.140625 24.898438 36.984375 24.996094 36.871094 25.132812 C 36.835938 25.179688 36.761719 25.269531 36.722656 25.316406 C 36.582031 25.582031 36.570312 25.875 36.640625 26.164062 C 36.644531 26.625 36.734375 27.074219 36.738281 27.535156 C 36.789062 28.035156 36.886719 28.570312 36.980469 29.105469 C 37.164062 30.09375 37.421875 30.988281 37.691406 31.96875 C 37.824219 32.457031 37.957031 32.945312 38.128906 33.390625 C 38.296875 33.835938 38.386719 34.285156 38.519531 34.777344 C 38.785156 35.753906 39.136719 36.726562 39.726562 37.585938 C 40.273438 38.414062 40.855469 39.191406 41.59375 39.871094 C 41.921875 40.214844 42.25 40.558594 42.617188 40.859375 C 42.980469 41.15625 43.308594 41.5 43.675781 41.800781 C 44.09375 42.21875 44.597656 42.628906 45.0625 43.082031 C 45.527344 43.539062 45.992188 43.996094 46.496094 44.40625 C 46.914062 44.824219 47.417969 45.234375 47.914062 45.5625 C 48.140625 45.75 48.453125 45.925781 48.679688 46.113281 C 48.910156 46.300781 49.183594 46.523438 49.410156 46.710938 C 49.410156 46.710938 49.457031 46.746094 49.457031 46.746094 C 49.640625 46.894531 49.824219 47.042969 49.996094 47.109375 C 49.992188 47.488281 49.992188 47.867188 50.03125 48.28125 C 50.003906 48.410156 50.019531 48.574219 50.039062 48.742188 C 50.058594 49.367188 50.082031 49.996094 50.101562 50.621094 C 50.144531 51.035156 50.148438 51.496094 50.144531 51.875 C 50.1875 53.128906 50.269531 54.335938 50.332031 55.378906 L 50.417969 56.207031 C 50.492188 56.953125 50.523438 57.664062 50.597656 58.410156 C 50.433594 58.050781 50.234375 57.734375 50.117188 57.410156 C 49.863281 56.976562 49.65625 56.578125 49.402344 56.140625 C 48.949219 55.390625 48.414062 54.648438 47.839844 53.953125 C 47.550781 53.5625 47.257812 53.171875 46.929688 52.828125 C 46.554688 52.449219 46.183594 52.066406 45.855469 51.722656 C 45.207031 51.117188 44.472656 50.519531 43.75 50.007812 C 43.339844 49.671875 42.976562 49.375 42.5625 49.039062 C 42.199219 48.738281 41.824219 48.359375 41.457031 48.058594 C 40.765625 47.417969 40.023438 46.738281 39.292969 46.140625 C 38.5625 45.542969 37.824219 44.863281 37.128906 44.222656 C 36.800781 43.878906 36.382812 43.460938 35.828125 43.390625 C 35.445312 43.304688 35.082031 43.464844 34.859375 43.738281 C 34.710938 43.921875 34.644531 44.097656 34.621094 44.308594 C 34.648438 44.558594 34.628906 44.769531 34.652344 45.019531 C 34.835938 46.007812 35.140625 46.9375 35.445312 47.871094 C 35.617188 48.316406 35.75 48.804688 35.921875 49.25 C 36.089844 49.695312 36.179688 50.144531 36.347656 50.589844 C 36.691406 51.476562 37.113281 52.355469 37.539062 53.234375 C 37.800781 53.753906 38.054688 54.1875 38.355469 54.660156 C 38.601562 55.015625 38.890625 55.402344 39.136719 55.757812 C 39.71875 56.535156 40.300781 57.316406 40.917969 58.050781 C 41.460938 58.414062 41.832031 58.796875 42.246094 59.128906 C 42.574219 59.476562 42.894531 59.734375 43.296875 59.988281 C 43.882812 60.390625 44.46875 60.792969 45.042969 61.109375 C 45.621094 61.429688 46.199219 61.75 46.8125 62.019531 C 47.425781 62.292969 48.078125 62.523438 48.738281 62.832031 C 49.308594 63.066406 49.886719 63.386719 50.464844 63.707031 C 50.507812 63.742188 50.554688 63.78125 50.683594 63.808594 C 50.730469 63.847656 50.820312 63.921875 50.902344 63.914062 C 51.03125 63.941406 51.160156 63.96875 51.289062 64 C 51.351562 64.203125 51.332031 64.414062 51.394531 64.617188 L 51.460938 65.28125 L 51.566406 65.898438 C 51.648438 66.730469 51.78125 67.597656 51.910156 68.464844 C 52.160156 70.113281 52.621094 71.785156 53.03125 73.339844 C 53.164062 73.828125 53.308594 74.398438 53.441406 74.890625 C 53.339844 74.730469 53.242188 74.574219 53.105469 74.460938 C 52.8125 74.074219 52.53125 73.765625 52.238281 73.375 C 51.949219 72.988281 51.664062 72.679688 51.335938 72.335938 C 50.636719 71.609375 49.976562 70.921875 49.3125 70.152344 C 48.65625 69.464844 47.953125 68.738281 47.101562 68.195312 C 46.746094 67.980469 46.433594 67.800781 46.085938 67.671875 C 45.644531 67.464844 45.25 67.292969 44.8125 67.085938 C 43.929688 66.671875 43.011719 66.304688 42.179688 65.929688 C 41.296875 65.515625 40.417969 65.101562 39.574219 64.640625 C 39.089844 64.398438 38.601562 64.152344 38.082031 63.953125 C 37.640625 63.746094 37.125 63.632812 36.640625 63.386719 C 36.464844 63.320312 36.246094 63.21875 36.070312 63.152344 C 35.941406 63.121094 35.765625 63.054688 35.675781 62.980469 C 35.328125 62.847656 34.875 62.9375 34.605469 63.175781 C 34.570312 63.21875 34.53125 63.265625 34.53125 63.265625 C 34.382812 63.449219 34.277344 63.667969 34.304688 63.917969 C 34.285156 64.128906 34.390625 64.371094 34.453125 64.574219 C 34.507812 64.691406 34.609375 64.851562 34.707031 65.007812 C 35.207031 65.796875 35.660156 66.546875 36.160156 67.335938 C 36.710938 68.242188 37.339844 69.058594 37.96875 69.875 C 38.550781 70.65625 39.242188 71.296875 39.898438 71.984375 C 40.554688 72.671875 41.222656 73.445312 41.953125 74.042969 C 42.363281 74.378906 42.738281 74.757812 43.1875 75.046875 C 43.550781 75.347656 43.964844 75.683594 44.367188 75.933594 C 45.042969 76.410156 45.765625 76.925781 46.515625 77.308594 C 47.230469 77.742188 48.019531 78.078125 48.765625 78.382812 C 49.726562 78.789062 50.699219 79.277344 51.691406 79.550781 C 52.773438 79.902344 53.839844 80.089844 54.933594 80.523438 C 54.980469 80.5625 55.109375 80.589844 55.191406 80.582031 C 55.253906 80.785156 55.316406 80.988281 55.421875 81.226562 C 55.484375 81.429688 55.546875 81.636719 55.648438 81.792969 C 55.953125 82.726562 56.292969 83.613281 56.636719 84.5 C 56.644531 84.582031 56.699219 84.703125 56.753906 84.824219 L 56.804688 84.945312 C 57.667969 87.246094 58.578125 89.207031 59.601562 91.03125 C 60.164062 92.023438 60.671875 92.894531 61.179688 93.765625 C 61.085938 93.691406 60.996094 93.617188 60.90625 93.542969 C 60.171875 92.945312 59.480469 92.304688 58.75 91.707031 C 58.019531 91.109375 57.285156 90.511719 56.554688 89.917969 C 56.234375 89.65625 55.832031 89.402344 55.511719 89.140625 C 55.109375 88.890625 54.789062 88.628906 54.386719 88.375 C 54.03125 88.160156 53.671875 87.945312 53.277344 87.773438 C 52.839844 87.570312 52.433594 87.316406 51.957031 87.15625 C 51.039062 86.785156 50.132812 86.5 49.257812 86.171875 C 48.339844 85.800781 47.386719 85.480469 46.433594 85.15625 C 45.515625 84.789062 44.640625 84.457031 43.6875 84.136719 C 43.164062 83.9375 42.640625 83.738281 42.125 83.625 C 41.785156 83.574219 41.425781 83.734375 41.203125 84.011719 C 41.015625 84.238281 40.957031 84.496094 41.027344 84.78125 C 41.089844 84.984375 41.191406 85.144531 41.289062 85.300781 C 41.335938 85.339844 41.390625 85.457031 41.4375 85.496094 C 42.007812 86.191406 42.5 86.898438 43.109375 87.546875 C 43.730469 88.28125 44.347656 89.015625 45.042969 89.65625 C 45.792969 90.421875 46.613281 91.089844 47.351562 91.769531 C 48.085938 92.367188 48.777344 93.011719 49.554688 93.644531 C 50.285156 94.242188 51.09375 94.746094 51.890625 95.167969 C 52.695312 95.671875 53.558594 95.921875 54.476562 96.289062 C 54.871094 96.457031 55.265625 96.628906 55.652344 96.714844 C 56.128906 96.875 56.644531 96.992188 57.195312 97.0625 C 57.453125 97.121094 57.710938 97.175781 57.96875 97.234375 C 58.785156 97.445312 59.601562 97.65625 60.421875 97.867188 C 60.890625 97.945312 61.320312 98.070312 61.789062 98.148438 C 62.175781 98.234375 62.644531 98.3125 63.03125 98.398438 C 63.289062 98.457031 63.464844 98.523438 63.722656 98.582031 C 63.847656 98.609375 63.976562 98.636719 64.144531 98.621094 C 64.34375 98.9375 64.542969 99.25 64.742188 99.566406 C 65.097656 100.160156 65.394531 100.632812 65.6875 101.023438 C 65.984375 101.496094 66.324219 101.921875 66.613281 102.3125 C 67.296875 103.25 68.015625 104.140625 68.734375 105.03125 C 68.972656 105.300781 69.214844 105.652344 69.453125 105.921875 C 69.882812 106.425781 70.316406 107.007812 70.746094 107.511719 L 70.84375 107.667969 C 71.136719 108.058594 71.511719 108.4375 71.800781 108.828125 C 72.039062 109.097656 72.273438 109.367188 72.464844 109.601562 C 72.566406 109.757812 72.75 109.90625 72.847656 110.0625 C 73.132812 110.371094 73.414062 110.675781 73.695312 110.984375 C 73.203125 110.65625 72.671875 110.375 72.128906 110.011719 C 71.195312 109.476562 70.308594 108.980469 69.457031 108.4375 C 69.054688 108.183594 68.660156 108.015625 68.257812 107.761719 C 67.816406 107.554688 67.328125 107.3125 66.925781 107.058594 C 66.085938 106.597656 65.203125 106.183594 64.324219 105.773438 C 63.882812 105.566406 63.453125 105.441406 62.972656 105.28125 C 62.496094 105.117188 62.066406 104.996094 61.585938 104.832031 C 60.679688 104.546875 59.769531 104.261719 58.90625 104.015625 C 58.34375 103.863281 57.832031 103.746094 57.316406 103.632812 C 56.847656 103.550781 56.414062 103.429688 55.945312 103.351562 C 55 103.109375 54.054688 102.871094 53.070312 102.679688 C 52.601562 102.597656 52.167969 102.476562 51.699219 102.398438 C 51.230469 102.320312 50.753906 102.15625 50.285156 102.078125 C 49.898438 101.992188 49.429688 101.914062 49.121094 102.199219 C 49.085938 102.242188 49.046875 102.289062 48.972656 102.378906 C 48.785156 102.609375 48.730469 102.867188 48.714844 103.160156 C 48.734375 103.328125 48.839844 103.566406 48.980469 103.679688 C 49.222656 104.03125 49.542969 104.292969 49.828125 104.597656 C 50.15625 104.941406 50.566406 105.277344 50.894531 105.621094 C 51.078125 105.773438 51.261719 105.921875 51.441406 106.070312 C 51.625 106.21875 51.855469 106.40625 52.035156 106.554688 C 52.8125 107.1875 53.542969 107.785156 54.359375 108.375 C 55.949219 109.597656 57.660156 110.765625 59.363281 111.847656 C 60.214844 112.390625 61.105469 112.886719 62.105469 113.25 C 62.582031 113.410156 63.105469 113.609375 63.582031 113.769531 C 64.058594 113.929688 64.621094 114.082031 65.171875 114.152344 C 66.074219 114.355469 66.972656 114.558594 67.867188 114.675781 C 68.886719 114.824219 69.863281 114.9375 70.882812 115.082031 C 71.859375 115.195312 72.835938 115.304688 73.847656 115.371094 C 74.859375 115.433594 75.820312 115.378906 76.867188 115.398438 C 77.246094 115.402344 77.667969 115.445312 78.09375 115.484375 C 78.222656 115.515625 78.304688 115.503906 78.425781 115.453125 C 78.515625 115.527344 78.605469 115.601562 78.660156 115.722656 C 79.171875 116.214844 79.730469 116.746094 80.242188 117.238281 C 80.886719 117.84375 81.5 118.492188 82.148438 119.097656 L 82.75 119.667969 C 83.398438 120.273438 84.238281 121.109375 85.160156 121.9375 C 85.296875 122.050781 85.386719 122.125 85.527344 122.234375 C 85.84375 122.496094 86.128906 122.804688 86.449219 123.066406 C 86.90625 123.4375 87.316406 123.773438 87.773438 124.144531 L 88.046875 124.371094 C 88.824219 125.003906 89.601562 125.636719 90.378906 126.273438 C 90.558594 126.421875 90.699219 126.53125 90.878906 126.683594 C 90.878906 126.683594 90.835938 126.644531 90.835938 126.644531 C 90.394531 126.4375 89.953125 126.230469 89.515625 126.023438 C 89.074219 125.816406 88.679688 125.648438 88.203125 125.484375 C 87.285156 125.117188 86.414062 124.785156 85.503906 124.5 C 85.027344 124.339844 84.59375 124.214844 84.164062 124.09375 C 83.683594 123.929688 83.125 123.777344 82.609375 123.664062 C 82.140625 123.585938 81.671875 123.507812 81.203125 123.429688 C 80.734375 123.351562 80.308594 123.308594 79.804688 123.277344 C 79.085938 123.222656 78.332031 123.214844 77.574219 123.207031 C 76.902344 123.191406 76.195312 123.222656 75.566406 123.246094 C 75.1875 123.242188 74.765625 123.199219 74.386719 123.195312 C 73.929688 123.199219 73.46875 123.207031 73.007812 123.210938 C 72.5 123.179688 72.003906 123.226562 71.457031 123.242188 C 71.375 123.25 71.328125 123.210938 71.292969 123.257812 C 71.210938 123.265625 71.125 123.273438 71.042969 123.285156 C 70.582031 123.289062 70.121094 123.292969 69.660156 123.296875 C 69.414062 123.324219 69.203125 123.300781 68.953125 123.328125 C 68.785156 123.34375 68.621094 123.363281 68.5 123.414062 C 68.296875 123.476562 68.175781 123.53125 68.019531 123.632812 C 67.980469 123.675781 67.945312 123.722656 67.871094 123.816406 C 67.757812 123.953125 67.691406 124.125 67.671875 124.335938 C 67.621094 124.679688 67.785156 125.039062 68.058594 125.261719 C 68.105469 125.300781 68.148438 125.335938 68.195312 125.375 C 68.332031 125.488281 68.46875 125.597656 68.605469 125.710938 C 68.972656 126.007812 69.292969 126.269531 69.695312 126.523438 C 70.546875 127.066406 71.480469 127.597656 72.371094 128.097656 C 73.210938 128.554688 74.011719 128.976562 74.925781 129.34375 C 76.808594 130.121094 78.734375 130.929688 80.757812 131.4375 C 81.234375 131.597656 81.703125 131.675781 82.21875 131.792969 C 82.6875 131.871094 83.15625 131.949219 83.578125 131.992188 C 84.507812 132.0625 85.476562 132.09375 86.441406 132.121094 C 86.902344 132.113281 87.410156 132.148438 87.90625 132.097656 C 87.992188 132.089844 88.074219 132.082031 88.203125 132.109375 C 88.285156 132.101562 88.285156 132.101562 88.367188 132.09375 C 88.414062 132.128906 88.453125 132.082031 88.496094 132.121094 C 88.578125 132.113281 88.707031 132.140625 88.792969 132.132812 C 89.085938 132.144531 89.335938 132.121094 89.628906 132.132812 C 90.089844 132.128906 90.550781 132.121094 91.050781 132.070312 C 92.007812 132.015625 93.011719 132 93.960938 131.859375 C 94.460938 131.808594 94.996094 131.714844 95.539062 131.703125 C 96.035156 131.652344 96.453125 131.609375 96.914062 131.605469 C 97.078125 131.585938 97.242188 131.570312 97.363281 131.515625 C 97.628906 131.65625 97.859375 131.84375 98.125 131.984375 C 99.289062 132.703125 100.414062 133.472656 101.546875 134.320312 C 102.085938 134.683594 102.671875 135.085938 103.394531 135.601562 C 103.753906 135.816406 104.070312 136.078125 104.382812 136.253906 L 104.742188 136.46875 C 105.007812 136.609375 105.226562 136.714844 105.457031 136.902344 C 105.675781 137.003906 105.925781 136.980469 106.128906 136.917969 C 106.339844 136.9375 106.589844 136.910156 106.835938 136.886719 L 107.003906 136.871094 C 107.378906 136.875 107.667969 136.800781 107.953125 136.730469 C 108.035156 136.722656 108.074219 136.675781 108.15625 136.667969 C 108.195312 136.625 108.238281 136.660156 108.277344 136.613281 C 108.398438 136.5625 108.515625 136.507812 108.636719 136.453125 C 108.675781 136.40625 108.757812 136.398438 108.839844 136.390625 C 108.921875 136.382812 108.960938 136.335938 109.042969 136.328125 C 109.164062 136.273438 109.320312 136.171875 109.480469 136.074219 C 109.515625 136.027344 109.601562 136.019531 109.636719 135.972656 L 109.71875 135.964844 C 109.839844 135.910156 109.996094 135.8125 110.117188 135.757812 C 110.238281 135.703125 110.351562 135.566406 110.425781 135.476562 C 110.609375 135.246094 110.667969 134.988281 110.644531 134.742188 C 110.617188 134.492188 110.519531 134.332031 110.375 134.140625 C 110.273438 133.980469 110.183594 133.90625 110.046875 133.796875 L 110 133.757812 C 109.863281 133.644531 109.726562 133.535156 109.542969 133.382812 C 109.40625 133.273438 109.183594 133.167969 109.046875 133.058594 C 108.867188 132.910156 108.597656 132.769531 108.417969 132.617188 L 108.234375 132.46875 C 107.914062 132.207031 107.601562 132.03125 107.28125 131.769531 C 106.789062 131.441406 106.332031 131.070312 105.835938 130.742188 C 105.5625 130.519531 105.25 130.339844 105.023438 130.152344 C 104.667969 129.9375 104.300781 129.640625 103.941406 129.425781 C 103.675781 129.285156 103.402344 129.058594 103.175781 128.875 C 103.039062 128.761719 102.945312 128.6875 102.773438 128.621094 C 102.003906 128.070312 101.273438 127.472656 100.496094 126.839844 C 99.902344 126.355469 99.261719 125.832031 98.667969 125.347656 L 98.257812 125.011719 C 97.386719 124.304688 96.519531 123.59375 95.605469 122.847656 C 95.597656 122.765625 95.582031 122.601562 95.527344 122.480469 C 95.464844 122.277344 95.4375 122.027344 95.375 121.824219 C 95.289062 121.371094 95.15625 120.882812 95.023438 120.394531 C 94.800781 119.453125 94.664062 118.5 94.488281 117.597656 C 94.128906 115.707031 93.640625 113.785156 93.078125 111.957031 C 92.675781 110.488281 91.992188 109.089844 91.386719 107.683594 C 91.109375 107 90.746094 106.324219 90.421875 105.601562 C 90.058594 104.925781 89.742188 104.285156 89.34375 103.65625 C 88.882812 102.824219 88.503906 101.980469 88.042969 101.148438 C 87.582031 100.3125 87.074219 99.441406 86.613281 98.609375 C 86.304688 98.054688 85.996094 97.496094 85.6875 96.941406 C 85.578125 96.703125 85.386719 96.46875 85.242188 96.273438 C 85.1875 96.15625 85.089844 95.996094 84.996094 95.921875 C 84.851562 95.726562 84.667969 95.578125 84.496094 95.511719 C 84.273438 95.410156 84.027344 95.433594 83.738281 95.503906 C 83.621094 95.558594 83.460938 95.660156 83.351562 95.796875 C 83.238281 95.933594 83.210938 96.0625 83.144531 96.234375 C 83.121094 96.449219 83.148438 96.695312 83.128906 96.910156 C 83.152344 97.15625 83.132812 97.367188 83.15625 97.617188 C 83.183594 97.867188 83.125 98.125 83.148438 98.375 C 83.140625 98.289062 83.132812 98.207031 83.125 98.125 C 83.09375 98.628906 83.105469 99.175781 83.109375 99.632812 C 83.113281 100.09375 83.121094 100.554688 83.125 101.015625 C 83.140625 102.019531 83.121094 103.070312 83.222656 104.066406 C 83.363281 105.015625 83.5 105.96875 83.722656 106.910156 C 83.816406 107.445312 83.960938 108.015625 84.09375 108.503906 C 84.226562 108.996094 84.398438 109.4375 84.605469 109.835938 C 84.777344 110.28125 84.984375 110.679688 85.109375 111.085938 C 85.324219 111.566406 85.542969 112.046875 85.839844 112.519531 C 86.300781 113.355469 86.882812 114.132812 87.382812 114.921875 C 87.929688 115.746094 88.4375 116.617188 88.980469 117.441406 C 89.027344 117.480469 89.027344 117.480469 89.070312 117.515625 L 79.476562 109.6875 C 79.382812 109.613281 79.246094 109.5 79.15625 109.425781 C 78.882812 109.203125 78.605469 108.976562 78.332031 108.753906 C 77.96875 108.457031 77.59375 108.074219 77.183594 107.738281 C 77 107.589844 76.769531 107.402344 76.589844 107.253906 C 76.609375 107.042969 76.582031 106.792969 76.605469 106.582031 C 76.644531 106.160156 76.601562 105.742188 76.644531 105.320312 C 76.640625 104.859375 76.597656 104.445312 76.554688 104.03125 C 76.507812 103.152344 76.460938 102.277344 76.460938 101.441406 C 76.441406 99.597656 76.136719 97.824219 75.988281 95.953125 C 75.933594 94.996094 75.796875 94.046875 75.695312 93.050781 C 75.554688 92.101562 75.417969 91.148438 75.195312 90.207031 C 75.054688 89.636719 74.957031 89.101562 74.78125 88.574219 C 74.644531 88.085938 74.476562 87.640625 74.34375 87.152344 C 74.21875 86.746094 74.046875 86.300781 73.921875 85.894531 C 73.796875 85.488281 73.664062 84.996094 73.574219 84.546875 C 73.355469 83.605469 73.050781 82.671875 72.707031 81.78125 C 72.40625 80.851562 72.136719 79.871094 71.789062 78.898438 C 71.726562 78.695312 71.664062 78.492188 71.554688 78.253906 C 71.4375 77.929688 71.359375 77.558594 71.039062 77.300781 C 70.855469 77.148438 70.554688 77.054688 70.304688 77.082031 C 70.136719 77.097656 69.933594 77.160156 69.824219 77.296875 C 69.785156 77.34375 69.710938 77.433594 69.671875 77.480469 C 69.597656 77.570312 69.5625 77.617188 69.53125 77.746094 C 69.464844 77.917969 69.445312 78.132812 69.34375 78.351562 C 69.09375 79.214844 68.894531 80.117188 68.726562 80.96875 C 68.535156 81.953125 68.332031 82.855469 68.136719 83.839844 C 68.058594 84.308594 68.019531 84.730469 67.941406 85.199219 C 67.863281 85.667969 67.828125 86.175781 67.75 86.644531 C 67.71875 87.152344 67.640625 87.621094 67.609375 88.125 C 67.585938 88.714844 67.597656 89.257812 67.609375 89.804688 C 67.613281 90.261719 67.664062 90.761719 67.714844 91.257812 C 67.722656 91.71875 67.808594 92.171875 67.851562 92.585938 C 67.875 92.835938 67.9375 93.039062 67.964844 93.289062 C 68.027344 93.492188 68.050781 93.742188 68.113281 93.945312 C 68.246094 94.433594 68.378906 94.921875 68.550781 95.367188 C 68.847656 96.21875 69.1875 97.105469 69.53125 97.992188 C 69.871094 98.878906 70.210938 99.765625 70.589844 100.609375 C 70.761719 101.054688 70.925781 101.414062 71.09375 101.859375 C 70.957031 101.746094 70.8125 101.550781 70.675781 101.4375 C 70.347656 101.09375 70.019531 100.75 69.726562 100.363281 C 69.492188 100.09375 69.253906 99.824219 69.015625 99.554688 C 68.359375 98.863281 67.789062 98.167969 67.214844 97.472656 C 66.546875 96.703125 65.976562 96.003906 65.484375 95.300781 C 65.195312 94.910156 64.855469 94.484375 64.601562 94.046875 C 64.359375 93.695312 64.113281 93.34375 63.867188 92.992188 C 63.476562 92.441406 63.132812 91.933594 62.75 91.46875 C 62.601562 91.273438 62.503906 91.117188 62.359375 90.921875 C 62.113281 90.570312 61.820312 90.179688 61.578125 89.828125 C 61.378906 89.511719 61.175781 89.195312 61.023438 88.917969 C 60.914062 88.679688 60.722656 88.445312 60.578125 88.25 C 60.371094 87.851562 60.078125 87.464844 59.863281 86.984375 C 59.753906 86.742188 59.601562 86.464844 59.492188 86.222656 C 59.492188 86.222656 59.492188 86.222656 59.445312 86.1875 C 59.445312 86.1875 59.484375 86.140625 59.484375 86.140625 C 59.558594 86.050781 59.679688 85.996094 59.753906 85.902344 C 59.828125 85.8125 59.867188 85.765625 59.941406 85.675781 C 60.089844 85.492188 60.277344 85.265625 60.425781 85.082031 C 60.992188 84.480469 61.5625 83.875 62.082031 83.238281 C 63.367188 81.847656 64.46875 80.3125 65.714844 78.96875 C 66.210938 78.457031 66.65625 77.910156 67.023438 77.371094 C 67.460938 76.738281 67.863281 76.152344 68.21875 75.53125 C 68.472656 75.128906 68.722656 74.726562 68.976562 74.320312 C 69.230469 73.917969 69.472656 73.433594 69.632812 72.957031 C 70.046875 72.074219 70.378906 71.203125 70.746094 70.285156 C 71.117188 69.367188 71.53125 68.488281 71.851562 67.535156 C 72.21875 66.617188 72.542969 65.660156 72.957031 64.78125 C 73.125 64.386719 73.296875 63.992188 73.464844 63.597656 C 73.503906 63.550781 73.53125 63.421875 73.523438 63.339844 C 73.589844 63.164062 73.683594 62.863281 73.621094 62.660156 C 73.558594 62.457031 73.550781 62.371094 73.453125 62.214844 C 73.351562 62.058594 73.214844 61.945312 73.039062 61.878906 C 72.773438 61.738281 72.441406 61.773438 72.164062 61.925781 C 71.765625 62.132812 71.449219 62.335938 71.105469 62.664062 C 70.71875 62.953125 70.375 63.28125 69.984375 63.574219 C 69.210938 64.238281 68.351562 64.828125 67.617188 65.449219 C 66.84375 66.113281 66.113281 66.730469 65.339844 67.398438 C 64.875 67.777344 64.496094 68.152344 64.078125 68.574219 C 63.734375 68.902344 63.386719 69.230469 63.089844 69.59375 C 62.671875 70.015625 62.261719 70.515625 61.886719 70.972656 C 61.664062 71.25 61.402344 71.566406 61.226562 71.878906 C 60.683594 72.730469 60.230469 73.65625 59.863281 74.574219 C 59.65625 75.015625 59.496094 75.492188 59.324219 75.886719 C 59.128906 76.410156 59.011719 76.925781 58.8125 77.449219 C 58.441406 78.742188 58.117188 80.074219 57.828125 81.363281 C 57.769531 81.621094 57.675781 81.921875 57.617188 82.179688 C 57.546875 81.894531 57.390625 81.617188 57.320312 81.328125 L 57.148438 80.886719 C 56.792969 79.832031 56.386719 78.742188 56.019531 77.605469 C 55.851562 77.160156 55.753906 76.625 55.613281 76.054688 C 55.605469 75.96875 55.558594 75.933594 55.59375 75.886719 L 55.585938 75.804688 L 55.53125 75.683594 L 55.480469 75.5625 C 55.46875 75.480469 55.460938 75.398438 55.417969 75.359375 L 55.363281 75.238281 C 55.300781 75.035156 55.28125 74.871094 55.21875 74.667969 C 55.015625 73.890625 54.847656 73.070312 54.644531 72.292969 C 54.566406 71.925781 54.441406 71.519531 54.316406 71.113281 C 54.390625 71.019531 54.464844 70.929688 54.539062 70.839844 C 54.800781 70.519531 55.105469 70.234375 55.414062 69.953125 C 55.757812 69.625 56.011719 69.222656 56.269531 68.902344 C 56.570312 68.535156 56.820312 68.132812 57.121094 67.769531 C 57.71875 67.035156 58.359375 66.34375 58.910156 65.574219 C 59.46875 64.890625 60.027344 64.203125 60.496094 63.445312 C 60.75 63.039062 61.003906 62.636719 61.253906 62.234375 C 61.507812 61.832031 61.75 61.347656 62.003906 60.945312 C 62.21875 60.585938 62.433594 60.230469 62.566406 59.878906 C 62.8125 59.394531 63.019531 58.953125 63.179688 58.476562 C 63.347656 58.082031 63.472656 57.652344 63.644531 57.257812 C 63.804688 56.777344 63.972656 56.382812 64.089844 55.871094 C 64.375 54.960938 64.613281 54.015625 64.898438 53.105469 C 65.058594 52.628906 65.222656 52.148438 65.382812 51.671875 C 65.542969 51.195312 65.707031 50.71875 65.867188 50.242188 C 66.1875 49.285156 66.472656 48.375 66.714844 47.429688 C 66.875 46.953125 66.953125 46.484375 67.03125 46.015625 C 67.183594 45.453125 67.335938 44.894531 67.195312 44.320312 C 67.160156 43.988281 66.878906 43.683594 66.53125 43.550781 C 66.226562 43.453125 65.976562 43.480469 65.699219 43.632812 C 65.582031 43.6875 65.46875 43.824219 65.347656 43.878906 C 64.957031 44.171875 64.570312 44.460938 64.179688 44.753906 C 63.828125 44.996094 63.480469 45.324219 63.175781 45.609375 C 62.792969 45.984375 62.40625 46.273438 62.023438 46.648438 C 61.289062 47.265625 60.5625 47.96875 59.882812 48.707031 C 59.539062 49.035156 59.203125 49.449219 58.90625 49.8125 C 58.871094 49.859375 58.792969 49.949219 58.757812 49.996094 C 58.460938 50.363281 58.199219 50.683594 57.945312 51.085938 C 57.691406 51.488281 57.441406 51.890625 57.234375 52.332031 C 56.980469 52.734375 56.773438 53.171875 56.566406 53.613281 C 56.324219 54.097656 56.160156 54.578125 55.964844 55.101562 C 55.800781 55.578125 55.679688 56.007812 55.515625 56.488281 C 55.230469 57.394531 54.863281 58.3125 54.578125 59.222656 C 54.332031 60.085938 54.046875 60.996094 53.796875 61.859375 C 53.550781 62.722656 53.339844 63.539062 53.089844 64.402344 C 53.023438 64.578125 53.042969 64.742188 52.976562 64.917969 C 52.964844 64.835938 52.957031 64.753906 52.957031 64.753906 C 52.925781 64.421875 52.890625 64.089844 52.820312 63.800781 C 52.664062 62.6875 52.546875 61.523438 52.429688 60.363281 C 52.371094 59.78125 52.3125 59.199219 52.289062 58.574219 C 52.238281 58.078125 52.234375 57.617188 52.183594 57.117188 C 52.144531 56.703125 52.109375 56.371094 52.066406 55.957031 C 51.992188 55.210938 51.90625 54.378906 51.832031 53.632812 C 51.757812 52.886719 51.761719 52.128906 51.734375 51.421875 C 51.699219 51.089844 51.703125 50.710938 51.714844 50.417969 C 51.703125 49.871094 51.679688 49.246094 51.667969 48.703125 C 51.707031 48.65625 51.75 48.695312 51.789062 48.648438 C 51.910156 48.59375 51.984375 48.503906 52.058594 48.410156 C 52.09375 48.367188 52.09375 48.367188 52.132812 48.320312 C 52.402344 48.082031 52.679688 47.929688 52.949219 47.691406 C 53.496094 47.300781 53.996094 46.875 54.5 46.445312 C 54.5 46.445312 54.5 46.445312 54.460938 46.492188 C 54.851562 46.199219 55.195312 45.871094 55.632812 45.617188 C 55.984375 45.371094 56.382812 45.164062 56.734375 44.917969 C 57.132812 44.710938 57.484375 44.464844 57.921875 44.210938 C 58.316406 44.003906 58.671875 43.757812 59.070312 43.550781 C 59.902344 43.089844 60.691406 42.589844 61.476562 42.089844 C 62.265625 41.59375 63.089844 41.046875 63.824219 40.429688 C 64.445312 39.945312 64.984375 39.472656 65.515625 38.914062 C 66.007812 38.40625 66.417969 37.902344 66.867188 37.355469 C 67.3125 36.804688 67.761719 36.257812 68.210938 35.707031 C 68.65625 35.160156 69.097656 34.527344 69.496094 33.945312 C 69.757812 33.625 69.972656 33.265625 70.199219 32.992188 C 70.535156 32.582031 70.90625 32.125 71.195312 31.675781 C 71.375 31.363281 71.597656 31.089844 71.730469 30.742188 C 71.910156 30.429688 71.957031 30.089844 71.839844 29.765625 C 71.785156 29.644531 71.6875 29.488281 71.585938 29.332031 C 71.449219 29.21875 71.320312 29.191406 71.101562 29.085938 C 70.925781 29.019531 70.640625 29.089844 70.519531 29.144531 C 69.78125 29.304688 69.058594 29.628906 68.375 29.90625 C 67.449219 30.292969 66.609375 30.671875 65.730469 31.097656 C 64.8125 31.566406 63.886719 31.953125 62.972656 32.425781 C 62.09375 32.847656 61.214844 33.273438 60.34375 33.78125 C 59.90625 34.035156 59.472656 34.289062 59.035156 34.542969 C 58.601562 34.796875 58.210938 35.085938 57.820312 35.378906 C 57.003906 36.003906 56.28125 36.707031 55.5625 37.492188 C 55.414062 37.675781 55.179688 37.867188 55.03125 38.050781 C 54.546875 38.644531 54.109375 39.273438 53.714844 39.945312 C 53.460938 40.347656 53.253906 40.785156 52.964844 41.234375 C 52.714844 41.636719 52.542969 42.03125 52.289062 42.433594 C 52.007812 42.96875 51.726562 43.5 51.445312 44.03125 L 51.433594 43.488281 C 51.449219 42.8125 51.425781 42.1875 51.40625 41.5625 C 51.382812 40.933594 51.355469 40.226562 51.371094 39.550781 C 51.429688 38.917969 51.445312 38.246094 51.527344 37.398438 C 51.511719 37.234375 51.578125 37.058594 51.5625 36.890625 C 51.582031 36.679688 51.566406 36.515625 51.585938 36.304688 C 51.578125 36.21875 51.570312 36.136719 51.605469 36.089844 C 51.625 35.878906 51.609375 35.714844 51.675781 35.539062 C 51.75 35.449219 51.898438 35.265625 51.929688 35.136719 C 52.144531 34.777344 52.320312 34.46875 52.539062 34.109375 C 53.050781 33.386719 53.609375 32.703125 54.078125 31.941406 C 54.546875 31.183594 55.050781 30.375 55.472656 29.578125 C 55.933594 28.734375 56.394531 27.894531 56.859375 27.132812 C 57.28125 26.335938 57.878906 25.605469 58.386719 24.800781 C 58.601562 24.441406 58.816406 24.085938 59.03125 23.726562 C 59.246094 23.371094 59.453125 22.929688 59.667969 22.574219 C 59.839844 22.179688 60.054688 21.820312 60.1875 21.472656 C 60.355469 21.078125 60.480469 20.648438 60.613281 20.296875 C 60.980469 19.378906 61.265625 18.472656 61.503906 17.523438 C 61.707031 16.625 61.992188 15.714844 62.148438 14.777344 C 62.226562 14.308594 62.257812 13.800781 62.300781 13.378906 C 62.332031 12.871094 62.410156 12.402344 62.488281 11.933594 C 62.636719 10.914062 62.65625 9.863281 62.675781 8.8125 C 62.667969 7.890625 62.703125 7.007812 62.695312 6.085938 C 62.667969 5.835938 62.644531 5.589844 62.535156 5.347656 C 62.425781 5.105469 62.382812 5.070312 62.234375 4.875 C 62.558594 4.757812 62.421875 4.644531 62.375 4.609375 Z M 70.554688 123.417969 C 70.507812 123.378906 70.507812 123.378906 70.554688 123.417969 C 70.507812 123.378906 70.507812 123.378906 70.554688 123.417969 Z M 70.554688 123.417969 " fill-opacity="1" fill-rule="nonzero"/></g></g></g><g clip-path="url(#e4a7bd8c98)"><g clip-path="url(#167cc12a82)"><g clip-path="url(#7daca8b8ab)"><path fill="#b9bfa7" d="M 66.273438 31.085938 C 66.234375 31.128906 66.152344 31.136719 66.117188 31.183594 C 66.152344 31.136719 66.191406 31.09375 66.273438 31.085938 Z M 66.273438 31.085938 " fill-opacity="1" fill-rule="nonzero"/></g></g></g><g clip-path="url(#08f1abb617)"><g clip-path="url(#b3541fa68d)"><g clip-path="url(#e17699787f)"><path fill="#b9bfa7" d="M 62.375 4.609375 C 62.109375 4.46875 61.816406 4.457031 61.574219 4.5625 C 61.335938 4.671875 61.175781 4.773438 60.980469 4.917969 C 60.710938 5.15625 60.453125 5.476562 60.183594 5.710938 C 59.578125 6.359375 58.980469 7.089844 58.421875 7.777344 C 58.121094 8.140625 57.777344 8.46875 57.480469 8.835938 C 57.441406 8.882812 57.40625 8.925781 57.367188 8.972656 C 57.109375 9.292969 56.847656 9.613281 56.621094 9.886719 C 55.988281 10.664062 55.484375 11.46875 54.894531 12.285156 C 54.269531 13.144531 53.683594 13.957031 53.191406 14.929688 C 52.734375 15.773438 52.238281 16.660156 51.867188 17.578125 C 51.625 18.0625 51.425781 18.585938 51.308594 19.101562 C 51.1875 19.535156 51.101562 19.917969 51.058594 20.34375 C 50.902344 21.28125 50.746094 22.21875 50.636719 23.195312 C 50.515625 24.085938 50.359375 25.023438 50.242188 25.917969 C 50.128906 26.894531 50.0625 27.90625 50.035156 28.871094 C 49.964844 29.800781 49.933594 30.769531 49.992188 31.726562 C 50.039062 32.226562 50.089844 32.722656 50.140625 33.222656 C 50.191406 33.71875 50.207031 34.261719 50.300781 34.796875 C 50.265625 34.84375 50.265625 34.84375 50.273438 34.925781 C 50.253906 35.136719 50.230469 35.351562 50.210938 35.5625 L 50.183594 35.691406 C 50.160156 35.902344 50.148438 36.195312 50.128906 36.410156 L 50.136719 36.492188 L 50.074219 37.503906 L 50.011719 38.140625 C 49.953125 39.234375 49.945312 40.367188 49.949219 41.667969 C 49.957031 41.75 49.964844 41.832031 49.972656 41.914062 C 49.921875 41.796875 49.902344 41.628906 49.847656 41.507812 C 49.722656 41.101562 49.597656 40.695312 49.519531 40.328125 C 49.394531 39.921875 49.308594 39.46875 49.183594 39.0625 C 49.058594 38.65625 48.886719 38.210938 48.761719 37.804688 C 48.589844 37.359375 48.457031 36.871094 48.332031 36.464844 C 48.027344 35.53125 47.6875 34.644531 47.261719 33.765625 C 47.054688 33.367188 46.761719 32.976562 46.519531 32.625 C 46.226562 32.234375 45.9375 31.84375 45.644531 31.457031 C 45.355469 31.066406 44.980469 30.683594 44.652344 30.339844 C 44.371094 30.035156 44.003906 29.734375 43.722656 29.429688 C 43.074219 28.824219 42.34375 28.226562 41.65625 27.667969 C 41.246094 27.332031 40.878906 27.035156 40.46875 26.699219 C 40.101562 26.398438 39.699219 26.148438 39.335938 25.847656 C 38.96875 25.550781 38.640625 25.207031 38.191406 24.917969 C 37.925781 24.777344 37.632812 24.761719 37.34375 24.835938 C 37.140625 24.898438 36.984375 24.996094 36.871094 25.132812 C 36.835938 25.179688 36.761719 25.269531 36.722656 25.316406 C 36.582031 25.582031 36.570312 25.875 36.640625 26.164062 C 36.644531 26.625 36.734375 27.074219 36.738281 27.535156 C 36.789062 28.035156 36.886719 28.570312 36.980469 29.105469 C 37.164062 30.09375 37.421875 30.988281 37.691406 31.96875 C 37.824219 32.457031 37.957031 32.945312 38.128906 33.390625 C 38.296875 33.835938 38.386719 34.285156 38.519531 34.777344 C 38.785156 35.753906 39.136719 36.726562 39.726562 37.585938 C 40.273438 38.414062 40.855469 39.191406 41.59375 39.871094 C 41.921875 40.214844 42.25 40.558594 42.617188 40.859375 C 42.980469 41.15625 43.308594 41.5 43.675781 41.800781 C 44.09375 42.21875 44.597656 42.628906 45.0625 43.082031 C 45.527344 43.539062 45.992188 43.996094 46.496094 44.40625 C 46.914062 44.824219 47.417969 45.234375 47.914062 45.5625 C 48.140625 45.75 48.453125 45.925781 48.679688 46.113281 C 48.910156 46.300781 49.183594 46.523438 49.410156 46.710938 C 49.410156 46.710938 49.457031 46.746094 49.457031 46.746094 C 49.640625 46.894531 49.824219 47.042969 49.996094 47.109375 C 49.992188 47.488281 49.992188 47.867188 50.03125 48.28125 C 50.003906 48.410156 50.019531 48.574219 50.039062 48.742188 C 50.058594 49.367188 50.082031 49.996094 50.101562 50.621094 C 50.144531 51.035156 50.148438 51.496094 50.144531 51.875 C 50.1875 53.128906 50.269531 54.335938 50.332031 55.378906 L 50.417969 56.207031 C 50.492188 56.953125 50.523438 57.664062 50.597656 58.410156 C 50.433594 58.050781 50.234375 57.734375 50.117188 57.410156 C 49.863281 56.976562 49.65625 56.578125 49.402344 56.140625 C 48.949219 55.390625 48.414062 54.648438 47.839844 53.953125 C 47.550781 53.5625 47.257812 53.171875 46.929688 52.828125 C 46.554688 52.449219 46.183594 52.066406 45.855469 51.722656 C 45.207031 51.117188 44.472656 50.519531 43.75 50.007812 C 43.339844 49.671875 42.976562 49.375 42.5625 49.039062 C 42.199219 48.738281 41.824219 48.359375 41.457031 48.058594 C 40.765625 47.417969 40.023438 46.738281 39.292969 46.140625 C 38.5625 45.542969 37.824219 44.863281 37.128906 44.222656 C 36.800781 43.878906 36.382812 43.460938 35.828125 43.390625 C 35.445312 43.304688 35.082031 43.464844 34.859375 43.738281 C 34.710938 43.921875 34.644531 44.097656 34.621094 44.308594 C 34.648438 44.558594 34.628906 44.769531 34.652344 45.019531 C 34.835938 46.007812 35.140625 46.9375 35.445312 47.871094 C 35.617188 48.316406 35.75 48.804688 35.921875 49.25 C 36.089844 49.695312 36.179688 50.144531 36.347656 50.589844 C 36.691406 51.476562 37.113281 52.355469 37.539062 53.234375 C 37.800781 53.753906 38.054688 54.1875 38.355469 54.660156 C 38.601562 55.015625 38.890625 55.402344 39.136719 55.757812 C 39.71875 56.535156 40.300781 57.316406 40.917969 58.050781 C 41.460938 58.414062 41.832031 58.796875 42.246094 59.128906 C 42.574219 59.476562 42.894531 59.734375 43.296875 59.988281 C 43.882812 60.390625 44.46875 60.792969 45.042969 61.109375 C 45.621094 61.429688 46.199219 61.75 46.8125 62.019531 C 47.425781 62.292969 48.078125 62.523438 48.738281 62.832031 C 49.308594 63.066406 49.886719 63.386719 50.464844 63.707031 C 50.507812 63.742188 50.554688 63.78125 50.683594 63.808594 C 50.730469 63.847656 50.820312 63.921875 50.902344 63.914062 C 51.03125 63.941406 51.160156 63.96875 51.289062 64 C 51.351562 64.203125 51.332031 64.414062 51.394531 64.617188 L 51.460938 65.28125 L 51.566406 65.898438 C 51.648438 66.730469 51.78125 67.597656 51.910156 68.464844 C 52.160156 70.113281 52.621094 71.785156 53.03125 73.339844 C 53.164062 73.828125 53.308594 74.398438 53.441406 74.890625 C 53.339844 74.730469 53.242188 74.574219 53.105469 74.460938 C 52.8125 74.074219 52.53125 73.765625 52.238281 73.375 C 51.949219 72.988281 51.664062 72.679688 51.335938 72.335938 C 50.636719 71.609375 49.976562 70.921875 49.3125 70.152344 C 48.65625 69.464844 47.953125 68.738281 47.101562 68.195312 C 46.746094 67.980469 46.433594 67.800781 46.085938 67.671875 C 45.644531 67.464844 45.25 67.292969 44.8125 67.085938 C 43.929688 66.671875 43.011719 66.304688 42.179688 65.929688 C 41.296875 65.515625 40.417969 65.101562 39.574219 64.640625 C 39.089844 64.398438 38.601562 64.152344 38.082031 63.953125 C 37.640625 63.746094 37.125 63.632812 36.640625 63.386719 C 36.464844 63.320312 36.246094 63.21875 36.070312 63.152344 C 35.941406 63.121094 35.765625 63.054688 35.675781 62.980469 C 35.328125 62.847656 34.875 62.9375 34.605469 63.175781 C 34.570312 63.21875 34.53125 63.265625 34.53125 63.265625 C 34.382812 63.449219 34.277344 63.667969 34.304688 63.917969 C 34.285156 64.128906 34.390625 64.371094 34.453125 64.574219 C 34.507812 64.691406 34.609375 64.851562 34.707031 65.007812 C 35.207031 65.796875 35.660156 66.546875 36.160156 67.335938 C 36.710938 68.242188 37.339844 69.058594 37.96875 69.875 C 38.550781 70.65625 39.242188 71.296875 39.898438 71.984375 C 40.554688 72.671875 41.222656 73.445312 41.953125 74.042969 C 42.363281 74.378906 42.738281 74.757812 43.1875 75.046875 C 43.550781 75.347656 43.964844 75.683594 44.367188 75.933594 C 45.042969 76.410156 45.765625 76.925781 46.515625 77.308594 C 47.230469 77.742188 48.019531 78.078125 48.765625 78.382812 C 49.726562 78.789062 50.699219 79.277344 51.691406 79.550781 C 52.773438 79.902344 53.839844 80.089844 54.933594 80.523438 C 54.980469 80.5625 55.109375 80.589844 55.191406 80.582031 C 55.253906 80.785156 55.316406 80.988281 55.421875 81.226562 C 55.484375 81.429688 55.546875 81.636719 55.648438 81.792969 C 55.953125 82.726562 56.292969 83.613281 56.636719 84.5 C 56.644531 84.582031 56.699219 84.703125 56.753906 84.824219 L 56.804688 84.945312 C 57.667969 87.246094 58.578125 89.207031 59.601562 91.03125 C 60.164062 92.023438 60.671875 92.894531 61.179688 93.765625 C 61.085938 93.691406 60.996094 93.617188 60.90625 93.542969 C 60.171875 92.945312 59.480469 92.304688 58.75 91.707031 C 58.019531 91.109375 57.285156 90.511719 56.554688 89.917969 C 56.234375 89.65625 55.832031 89.402344 55.511719 89.140625 C 55.109375 88.890625 54.789062 88.628906 54.386719 88.375 C 54.03125 88.160156 53.671875 87.945312 53.277344 87.773438 C 52.839844 87.570312 52.433594 87.316406 51.957031 87.15625 C 51.039062 86.785156 50.132812 86.5 49.257812 86.171875 C 48.339844 85.800781 47.386719 85.480469 46.433594 85.15625 C 45.515625 84.789062 44.640625 84.457031 43.6875 84.136719 C 43.164062 83.9375 42.640625 83.738281 42.125 83.625 C 41.785156 83.574219 41.425781 83.734375 41.203125 84.011719 C 41.015625 84.238281 40.957031 84.496094 41.027344 84.78125 C 41.089844 84.984375 41.191406 85.144531 41.289062 85.300781 C 41.335938 85.339844 41.390625 85.457031 41.4375 85.496094 C 42.007812 86.191406 42.5 86.898438 43.109375 87.546875 C 43.730469 88.28125 44.347656 89.015625 45.042969 89.65625 C 45.792969 90.421875 46.613281 91.089844 47.351562 91.769531 C 48.085938 92.367188 48.777344 93.011719 49.554688 93.644531 C 50.285156 94.242188 51.09375 94.746094 51.890625 95.167969 C 52.695312 95.671875 53.558594 95.921875 54.476562 96.289062 C 54.871094 96.457031 55.265625 96.628906 55.652344 96.714844 C 56.128906 96.875 56.644531 96.992188 57.195312 97.0625 C 57.453125 97.121094 57.710938 97.175781 57.96875 97.234375 C 58.785156 97.445312 59.601562 97.65625 60.421875 97.867188 C 60.890625 97.945312 61.320312 98.070312 61.789062 98.148438 C 62.175781 98.234375 62.644531 98.3125 63.03125 98.398438 C 63.289062 98.457031 63.464844 98.523438 63.722656 98.582031 C 63.847656 98.609375 63.976562 98.636719 64.144531 98.621094 C 64.34375 98.9375 64.542969 99.25 64.742188 99.566406 C 65.097656 100.160156 65.394531 100.632812 65.6875 101.023438 C 65.984375 101.496094 66.324219 101.921875 66.613281 102.3125 C 67.296875 103.25 68.015625 104.140625 68.734375 105.03125 C 68.972656 105.300781 69.214844 105.652344 69.453125 105.921875 C 69.882812 106.425781 70.316406 107.007812 70.746094 107.511719 L 70.84375 107.667969 C 71.136719 108.058594 71.511719 108.4375 71.800781 108.828125 C 72.039062 109.097656 72.273438 109.367188 72.464844 109.601562 C 72.566406 109.757812 72.75 109.90625 72.847656 110.0625 C 73.132812 110.371094 73.414062 110.675781 73.695312 110.984375 C 73.203125 110.65625 72.671875 110.375 72.128906 110.011719 C 71.195312 109.476562 70.308594 108.980469 69.457031 108.4375 C 69.054688 108.183594 68.660156 108.015625 68.257812 107.761719 C 67.816406 107.554688 67.328125 107.3125 66.925781 107.058594 C 66.085938 106.597656 65.203125 106.183594 64.324219 105.773438 C 63.882812 105.566406 63.453125 105.441406 62.972656 105.28125 C 62.496094 105.117188 62.066406 104.996094 61.585938 104.832031 C 60.679688 104.546875 59.769531 104.261719 58.90625 104.015625 C 58.34375 103.863281 57.832031 103.746094 57.316406 103.632812 C 56.847656 103.550781 56.414062 103.429688 55.945312 103.351562 C 55 103.109375 54.054688 102.871094 53.070312 102.679688 C 52.601562 102.597656 52.167969 102.476562 51.699219 102.398438 C 51.230469 102.320312 50.753906 102.15625 50.285156 102.078125 C 49.898438 101.992188 49.429688 101.914062 49.121094 102.199219 C 49.085938 102.242188 49.046875 102.289062 48.972656 102.378906 C 48.785156 102.609375 48.730469 102.867188 48.714844 103.160156 C 48.734375 103.328125 48.839844 103.566406 48.980469 103.679688 C 49.222656 104.03125 49.542969 104.292969 49.828125 104.597656 C 50.15625 104.941406 50.566406 105.277344 50.894531 105.621094 C 51.078125 105.773438 51.261719 105.921875 51.441406 106.070312 C 51.625 106.21875 51.855469 106.40625 52.035156 106.554688 C 52.8125 107.1875 53.542969 107.785156 54.359375 108.375 C 55.949219 109.597656 57.660156 110.765625 59.363281 111.847656 C 60.214844 112.390625 61.105469 112.886719 62.105469 113.25 C 62.582031 113.410156 63.105469 113.609375 63.582031 113.769531 C 64.058594 113.929688 64.621094 114.082031 65.171875 114.152344 C 66.074219 114.355469 66.972656 114.558594 67.867188 114.675781 C 68.886719 114.824219 69.863281 114.9375 70.882812 115.082031 C 71.859375 115.195312 72.835938 115.304688 73.847656 115.371094 C 74.859375 115.433594 75.820312 115.378906 76.867188 115.398438 C 77.246094 115.402344 77.667969 115.445312 78.09375 115.484375 C 78.222656 115.515625 78.304688 115.503906 78.425781 115.453125 C 78.515625 115.527344 78.605469 115.601562 78.660156 115.722656 C 79.171875 116.214844 79.730469 116.746094 80.242188 117.238281 C 80.886719 117.84375 81.5 118.492188 82.148438 119.097656 L 82.75 119.667969 C 83.398438 120.273438 84.238281 121.109375 85.160156 121.9375 C 85.296875 122.050781 85.386719 122.125 85.527344 122.234375 C 85.84375 122.496094 86.128906 122.804688 86.449219 123.066406 C 86.90625 123.4375 87.316406 123.773438 87.773438 124.144531 L 88.046875 124.371094 C 88.824219 125.003906 89.601562 125.636719 90.378906 126.273438 C 90.558594 126.421875 90.699219 126.53125 90.878906 126.683594 C 90.878906 126.683594 90.835938 126.644531 90.835938 126.644531 C 90.394531 126.4375 89.953125 126.230469 89.515625 126.023438 C 89.074219 125.816406 88.679688 125.648438 88.203125 125.484375 C 87.285156 125.117188 86.414062 124.785156 85.503906 124.5 C 85.027344 124.339844 84.59375 124.214844 84.164062 124.09375 C 83.683594 123.929688 83.125 123.777344 82.609375 123.664062 C 82.140625 123.585938 81.671875 123.507812 81.203125 123.429688 C 80.734375 123.351562 80.308594 123.308594 79.804688 123.277344 C 79.085938 123.222656 78.332031 123.214844 77.574219 123.207031 C 76.902344 123.191406 76.195312 123.222656 75.566406 123.246094 C 75.1875 123.242188 74.765625 123.199219 74.386719 123.195312 C 73.929688 123.199219 73.46875 123.207031 73.007812 123.210938 C 72.5 123.179688 72.003906 123.226562 71.457031 123.242188 C 71.375 123.25 71.328125 123.210938 71.292969 123.257812 C 71.210938 123.265625 71.125 123.273438 71.042969 123.285156 C 70.582031 123.289062 70.121094 123.292969 69.660156 123.296875 C 69.414062 123.324219 69.203125 123.300781 68.953125 123.328125 C 68.785156 123.34375 68.621094 123.363281 68.5 123.414062 C 68.296875 123.476562 68.175781 123.53125 68.019531 123.632812 C 67.980469 123.675781 67.945312 123.722656 67.871094 123.816406 C 67.757812 123.953125 67.691406 124.125 67.671875 124.335938 C 67.621094 124.679688 67.785156 125.039062 68.058594 125.261719 C 68.105469 125.300781 68.148438 125.335938 68.195312 125.375 C 68.332031 125.488281 68.46875 125.597656 68.605469 125.710938 C 68.972656 126.007812 69.292969 126.269531 69.695312 126.523438 C 70.546875 127.066406 71.480469 127.597656 72.371094 128.097656 C 73.210938 128.554688 74.011719 128.976562 74.925781 129.34375 C 76.808594 130.121094 78.734375 130.929688 80.757812 131.4375 C 81.234375 131.597656 81.703125 131.675781 82.21875 131.792969 C 82.6875 131.871094 83.15625 131.949219 83.578125 131.992188 C 84.507812 132.0625 85.476562 132.09375 86.441406 132.121094 C 86.902344 132.113281 87.410156 132.148438 87.90625 132.097656 C 87.992188 132.089844 88.074219 132.082031 88.203125 132.109375 C 88.285156 132.101562 88.285156 132.101562 88.367188 132.09375 C 88.414062 132.128906 88.453125 132.082031 88.496094 132.121094 C 88.578125 132.113281 88.707031 132.140625 88.792969 132.132812 C 89.085938 132.144531 89.335938 132.121094 89.628906 132.132812 C 90.089844 132.128906 90.550781 132.121094 91.050781 132.070312 C 92.007812 132.015625 93.011719 132 93.960938 131.859375 C 94.460938 131.808594 94.996094 131.714844 95.539062 131.703125 C 96.035156 131.652344 96.453125 131.609375 96.914062 131.605469 C 97.078125 131.585938 97.242188 131.570312 97.363281 131.515625 C 97.628906 131.65625 97.859375 131.84375 98.125 131.984375 C 99.289062 132.703125 100.414062 133.472656 101.546875 134.320312 C 102.085938 134.683594 102.671875 135.085938 103.394531 135.601562 C 103.753906 135.816406 104.070312 136.078125 104.382812 136.253906 L 104.742188 136.46875 C 105.007812 136.609375 105.226562 136.714844 105.457031 136.902344 C 105.675781 137.003906 105.925781 136.980469 106.128906 136.917969 C 106.339844 136.9375 106.589844 136.910156 106.835938 136.886719 L 107.003906 136.871094 C 107.378906 136.875 107.667969 136.800781 107.953125 136.730469 C 108.035156 136.722656 108.074219 136.675781 108.15625 136.667969 C 108.195312 136.625 108.238281 136.660156 108.277344 136.613281 C 108.398438 136.5625 108.515625 136.507812 108.636719 136.453125 C 108.675781 136.40625 108.757812 136.398438 108.839844 136.390625 C 108.921875 136.382812 108.960938 136.335938 109.042969 136.328125 C 109.164062 136.273438 109.320312 136.171875 109.480469 136.074219 C 109.515625 136.027344 109.601562 136.019531 109.636719 135.972656 L 109.71875 135.964844 C 109.839844 135.910156 109.996094 135.8125 110.117188 135.757812 C 110.238281 135.703125 110.351562 135.566406 110.425781 135.476562 C 110.609375 135.246094 110.667969 134.988281 110.644531 134.742188 C 110.617188 134.492188 110.519531 134.332031 110.375 134.140625 C 110.273438 133.980469 110.183594 133.90625 110.046875 133.796875 L 110 133.757812 C 109.863281 133.644531 109.726562 133.535156 109.542969 133.382812 C 109.40625 133.273438 109.183594 133.167969 109.046875 133.058594 C 108.867188 132.910156 108.597656 132.769531 108.417969 132.617188 L 108.234375 132.46875 C 107.914062 132.207031 107.601562 132.03125 107.28125 131.769531 C 106.789062 131.441406 106.332031 131.070312 105.835938 130.742188 C 105.5625 130.519531 105.25 130.339844 105.023438 130.152344 C 104.667969 129.9375 104.300781 129.640625 103.941406 129.425781 C 103.675781 129.285156 103.402344 129.058594 103.175781 128.875 C 103.039062 128.761719 102.945312 128.6875 102.773438 128.621094 C 102.003906 128.070312 101.273438 127.472656 100.496094 126.839844 C 99.902344 126.355469 99.261719 125.832031 98.667969 125.347656 L 98.257812 125.011719 C 97.386719 124.304688 96.519531 123.59375 95.605469 122.847656 C 95.597656 122.765625 95.582031 122.601562 95.527344 122.480469 C 95.464844 122.277344 95.4375 122.027344 95.375 121.824219 C 95.289062 121.371094 95.15625 120.882812 95.023438 120.394531 C 94.800781 119.453125 94.664062 118.5 94.488281 117.597656 C 94.128906 115.707031 93.640625 113.785156 93.078125 111.957031 C 92.675781 110.488281 91.992188 109.089844 91.386719 107.683594 C 91.109375 107 90.746094 106.324219 90.421875 105.601562 C 90.058594 104.925781 89.742188 104.285156 89.34375 103.65625 C 88.882812 102.824219 88.503906 101.980469 88.042969 101.148438 C 87.582031 100.3125 87.074219 99.441406 86.613281 98.609375 C 86.304688 98.054688 85.996094 97.496094 85.6875 96.941406 C 85.578125 96.703125 85.386719 96.46875 85.242188 96.273438 C 85.1875 96.15625 85.089844 95.996094 84.996094 95.921875 C 84.851562 95.726562 84.667969 95.578125 84.496094 95.511719 C 84.273438 95.410156 84.027344 95.433594 83.738281 95.503906 C 83.621094 95.558594 83.460938 95.660156 83.351562 95.796875 C 83.238281 95.933594 83.210938 96.0625 83.144531 96.234375 C 83.121094 96.449219 83.148438 96.695312 83.128906 96.910156 C 83.152344 97.15625 83.132812 97.367188 83.15625 97.617188 C 83.183594 97.867188 83.125 98.125 83.148438 98.375 C 83.140625 98.289062 83.132812 98.207031 83.125 98.125 C 83.09375 98.628906 83.105469 99.175781 83.109375 99.632812 C 83.113281 100.09375 83.121094 100.554688 83.125 101.015625 C 83.140625 102.019531 83.121094 103.070312 83.222656 104.066406 C 83.363281 105.015625 83.5 105.96875 83.722656 106.910156 C 83.816406 107.445312 83.960938 108.015625 84.09375 108.503906 C 84.226562 108.996094 84.398438 109.4375 84.605469 109.835938 C 84.777344 110.28125 84.984375 110.679688 85.109375 111.085938 C 85.324219 111.566406 85.542969 112.046875 85.839844 112.519531 C 86.300781 113.355469 86.882812 114.132812 87.382812 114.921875 C 87.929688 115.746094 88.4375 116.617188 88.980469 117.441406 C 89.027344 117.480469 89.027344 117.480469 89.070312 117.515625 L 79.476562 109.6875 C 79.382812 109.613281 79.246094 109.5 79.15625 109.425781 C 78.882812 109.203125 78.605469 108.976562 78.332031 108.753906 C 77.96875 108.457031 77.59375 108.074219 77.183594 107.738281 C 77 107.589844 76.769531 107.402344 76.589844 107.253906 C 76.609375 107.042969 76.582031 106.792969 76.605469 106.582031 C 76.644531 106.160156 76.601562 105.742188 76.644531 105.320312 C 76.640625 104.859375 76.597656 104.445312 76.554688 104.03125 C 76.507812 103.152344 76.460938 102.277344 76.460938 101.441406 C 76.441406 99.597656 76.136719 97.824219 75.988281 95.953125 C 75.933594 94.996094 75.796875 94.046875 75.695312 93.050781 C 75.554688 92.101562 75.417969 91.148438 75.195312 90.207031 C 75.054688 89.636719 74.957031 89.101562 74.78125 88.574219 C 74.644531 88.085938 74.476562 87.640625 74.34375 87.152344 C 74.21875 86.746094 74.046875 86.300781 73.921875 85.894531 C 73.796875 85.488281 73.664062 84.996094 73.574219 84.546875 C 73.355469 83.605469 73.050781 82.671875 72.707031 81.78125 C 72.40625 80.851562 72.136719 79.871094 71.789062 78.898438 C 71.726562 78.695312 71.664062 78.492188 71.554688 78.253906 C 71.4375 77.929688 71.359375 77.558594 71.039062 77.300781 C 70.855469 77.148438 70.554688 77.054688 70.304688 77.082031 C 70.136719 77.097656 69.933594 77.160156 69.824219 77.296875 C 69.785156 77.34375 69.710938 77.433594 69.671875 77.480469 C 69.597656 77.570312 69.5625 77.617188 69.53125 77.746094 C 69.464844 77.917969 69.445312 78.132812 69.34375 78.351562 C 69.09375 79.214844 68.894531 80.117188 68.726562 80.96875 C 68.535156 81.953125 68.332031 82.855469 68.136719 83.839844 C 68.058594 84.308594 68.019531 84.730469 67.941406 85.199219 C 67.863281 85.667969 67.828125 86.175781 67.75 86.644531 C 67.71875 87.152344 67.640625 87.621094 67.609375 88.125 C 67.585938 88.714844 67.597656 89.257812 67.609375 89.804688 C 67.613281 90.261719 67.664062 90.761719 67.714844 91.257812 C 67.722656 91.71875 67.808594 92.171875 67.851562 92.585938 C 67.875 92.835938 67.9375 93.039062 67.964844 93.289062 C 68.027344 93.492188 68.050781 93.742188 68.113281 93.945312 C 68.246094 94.433594 68.378906 94.921875 68.550781 95.367188 C 68.847656 96.21875 69.1875 97.105469 69.53125 97.992188 C 69.871094 98.878906 70.210938 99.765625 70.589844 100.609375 C 70.761719 101.054688 70.925781 101.414062 71.09375 101.859375 C 70.957031 101.746094 70.8125 101.550781 70.675781 101.4375 C 70.347656 101.09375 70.019531 100.75 69.726562 100.363281 C 69.492188 100.09375 69.253906 99.824219 69.015625 99.554688 C 68.359375 98.863281 67.789062 98.167969 67.214844 97.472656 C 66.546875 96.703125 65.976562 96.003906 65.484375 95.300781 C 65.195312 94.910156 64.855469 94.484375 64.601562 94.046875 C 64.359375 93.695312 64.113281 93.34375 63.867188 92.992188 C 63.476562 92.441406 63.132812 91.933594 62.75 91.46875 C 62.601562 91.273438 62.503906 91.117188 62.359375 90.921875 C 62.113281 90.570312 61.820312 90.179688 61.578125 89.828125 C 61.378906 89.511719 61.175781 89.195312 61.023438 88.917969 C 60.914062 88.679688 60.722656 88.445312 60.578125 88.25 C 60.371094 87.851562 60.078125 87.464844 59.863281 86.984375 C 59.753906 86.742188 59.601562 86.464844 59.492188 86.222656 C 59.492188 86.222656 59.492188 86.222656 59.445312 86.1875 C 59.445312 86.1875 59.484375 86.140625 59.484375 86.140625 C 59.558594 86.050781 59.679688 85.996094 59.753906 85.902344 C 59.828125 85.8125 59.867188 85.765625 59.941406 85.675781 C 60.089844 85.492188 60.277344 85.265625 60.425781 85.082031 C 60.992188 84.480469 61.5625 83.875 62.082031 83.238281 C 63.367188 81.847656 64.46875 80.3125 65.714844 78.96875 C 66.210938 78.457031 66.65625 77.910156 67.023438 77.371094 C 67.460938 76.738281 67.863281 76.152344 68.21875 75.53125 C 68.472656 75.128906 68.722656 74.726562 68.976562 74.320312 C 69.230469 73.917969 69.472656 73.433594 69.632812 72.957031 C 70.046875 72.074219 70.378906 71.203125 70.746094 70.285156 C 71.117188 69.367188 71.53125 68.488281 71.851562 67.535156 C 72.21875 66.617188 72.542969 65.660156 72.957031 64.78125 C 73.125 64.386719 73.296875 63.992188 73.464844 63.597656 C 73.503906 63.550781 73.53125 63.421875 73.523438 63.339844 C 73.589844 63.164062 73.683594 62.863281 73.621094 62.660156 C 73.558594 62.457031 73.550781 62.371094 73.453125 62.214844 C 73.351562 62.058594 73.214844 61.945312 73.039062 61.878906 C 72.773438 61.738281 72.441406 61.773438 72.164062 61.925781 C 71.765625 62.132812 71.449219 62.335938 71.105469 62.664062 C 70.71875 62.953125 70.375 63.28125 69.984375 63.574219 C 69.210938 64.238281 68.351562 64.828125 67.617188 65.449219 C 66.84375 66.113281 66.113281 66.730469 65.339844 67.398438 C 64.875 67.777344 64.496094 68.152344 64.078125 68.574219 C 63.734375 68.902344 63.386719 69.230469 63.089844 69.59375 C 62.671875 70.015625 62.261719 70.515625 61.886719 70.972656 C 61.664062 71.25 61.402344 71.566406 61.226562 71.878906 C 60.683594 72.730469 60.230469 73.65625 59.863281 74.574219 C 59.65625 75.015625 59.496094 75.492188 59.324219 75.886719 C 59.128906 76.410156 59.011719 76.925781 58.8125 77.449219 C 58.441406 78.742188 58.117188 80.074219 57.828125 81.363281 C 57.769531 81.621094 57.675781 81.921875 57.617188 82.179688 C 57.546875 81.894531 57.390625 81.617188 57.320312 81.328125 L 57.148438 80.886719 C 56.792969 79.832031 56.386719 78.742188 56.019531 77.605469 C 55.851562 77.160156 55.753906 76.625 55.613281 76.054688 C 55.605469 75.96875 55.558594 75.933594 55.59375 75.886719 L 55.585938 75.804688 L 55.53125 75.683594 L 55.480469 75.5625 C 55.46875 75.480469 55.460938 75.398438 55.417969 75.359375 L 55.363281 75.238281 C 55.300781 75.035156 55.28125 74.871094 55.21875 74.667969 C 55.015625 73.890625 54.847656 73.070312 54.644531 72.292969 C 54.566406 71.925781 54.441406 71.519531 54.316406 71.113281 C 54.390625 71.019531 54.464844 70.929688 54.539062 70.839844 C 54.800781 70.519531 55.105469 70.234375 55.414062 69.953125 C 55.757812 69.625 56.011719 69.222656 56.269531 68.902344 C 56.570312 68.535156 56.820312 68.132812 57.121094 67.769531 C 57.71875 67.035156 58.359375 66.34375 58.910156 65.574219 C 59.46875 64.890625 60.027344 64.203125 60.496094 63.445312 C 60.75 63.039062 61.003906 62.636719 61.253906 62.234375 C 61.507812 61.832031 61.75 61.347656 62.003906 60.945312 C 62.21875 60.585938 62.433594 60.230469 62.566406 59.878906 C 62.8125 59.394531 63.019531 58.953125 63.179688 58.476562 C 63.347656 58.082031 63.472656 57.652344 63.644531 57.257812 C 63.804688 56.777344 63.972656 56.382812 64.089844 55.871094 C 64.375 54.960938 64.613281 54.015625 64.898438 53.105469 C 65.058594 52.628906 65.222656 52.148438 65.382812 51.671875 C 65.542969 51.195312 65.707031 50.71875 65.867188 50.242188 C 66.1875 49.285156 66.472656 48.375 66.714844 47.429688 C 66.875 46.953125 66.953125 46.484375 67.03125 46.015625 C 67.183594 45.453125 67.335938 44.894531 67.195312 44.320312 C 67.160156 43.988281 66.878906 43.683594 66.53125 43.550781 C 66.226562 43.453125 65.976562 43.480469 65.699219 43.632812 C 65.582031 43.6875 65.46875 43.824219 65.347656 43.878906 C 64.957031 44.171875 64.570312 44.460938 64.179688 44.753906 C 63.828125 44.996094 63.480469 45.324219 63.175781 45.609375 C 62.792969 45.984375 62.40625 46.273438 62.023438 46.648438 C 61.289062 47.265625 60.5625 47.96875 59.882812 48.707031 C 59.539062 49.035156 59.203125 49.449219 58.90625 49.8125 C 58.871094 49.859375 58.792969 49.949219 58.757812 49.996094 C 58.460938 50.363281 58.199219 50.683594 57.945312 51.085938 C 57.691406 51.488281 57.441406 51.890625 57.234375 52.332031 C 56.980469 52.734375 56.773438 53.171875 56.566406 53.613281 C 56.324219 54.097656 56.160156 54.578125 55.964844 55.101562 C 55.800781 55.578125 55.679688 56.007812 55.515625 56.488281 C 55.230469 57.394531 54.863281 58.3125 54.578125 59.222656 C 54.332031 60.085938 54.046875 60.996094 53.796875 61.859375 C 53.550781 62.722656 53.339844 63.539062 53.089844 64.402344 C 53.023438 64.578125 53.042969 64.742188 52.976562 64.917969 C 52.964844 64.835938 52.957031 64.753906 52.957031 64.753906 C 52.925781 64.421875 52.890625 64.089844 52.820312 63.800781 C 52.664062 62.6875 52.546875 61.523438 52.429688 60.363281 C 52.371094 59.78125 52.3125 59.199219 52.289062 58.574219 C 52.238281 58.078125 52.234375 57.617188 52.183594 57.117188 C 52.144531 56.703125 52.109375 56.371094 52.066406 55.957031 C 51.992188 55.210938 51.90625 54.378906 51.832031 53.632812 C 51.757812 52.886719 51.761719 52.128906 51.734375 51.421875 C 51.699219 51.089844 51.703125 50.710938 51.714844 50.417969 C 51.703125 49.871094 51.679688 49.246094 51.667969 48.703125 C 51.707031 48.65625 51.75 48.695312 51.789062 48.648438 C 51.910156 48.59375 51.984375 48.503906 52.058594 48.410156 C 52.09375 48.367188 52.09375 48.367188 52.132812 48.320312 C 52.402344 48.082031 52.679688 47.929688 52.949219 47.691406 C 53.496094 47.300781 53.996094 46.875 54.5 46.445312 C 54.5 46.445312 54.5 46.445312 54.460938 46.492188 C 54.851562 46.199219 55.195312 45.871094 55.632812 45.617188 C 55.984375 45.371094 56.382812 45.164062 56.734375 44.917969 C 57.132812 44.710938 57.484375 44.464844 57.921875 44.210938 C 58.316406 44.003906 58.671875 43.757812 59.070312 43.550781 C 59.902344 43.089844 60.691406 42.589844 61.476562 42.089844 C 62.265625 41.59375 63.089844 41.046875 63.824219 40.429688 C 64.445312 39.945312 64.984375 39.472656 65.515625 38.914062 C 66.007812 38.40625 66.417969 37.902344 66.867188 37.355469 C 67.3125 36.804688 67.761719 36.257812 68.210938 35.707031 C 68.65625 35.160156 69.097656 34.527344 69.496094 33.945312 C 69.757812 33.625 69.972656 33.265625 70.199219 32.992188 C 70.535156 32.582031 70.90625 32.125 71.195312 31.675781 C 71.375 31.363281 71.597656 31.089844 71.730469 30.742188 C 71.910156 30.429688 71.957031 30.089844 71.839844 29.765625 C 71.785156 29.644531 71.6875 29.488281 71.585938 29.332031 C 71.449219 29.21875 71.320312 29.191406 71.101562 29.085938 C 70.925781 29.019531 70.640625 29.089844 70.519531 29.144531 C 69.78125 29.304688 69.058594 29.628906 68.375 29.90625 C 67.449219 30.292969 66.609375 30.671875 65.730469 31.097656 C 64.8125 31.566406 63.886719 31.953125 62.972656 32.425781 C 62.09375 32.847656 61.214844 33.273438 60.34375 33.78125 C 59.90625 34.035156 59.472656 34.289062 59.035156 34.542969 C 58.601562 34.796875 58.210938 35.085938 57.820312 35.378906 C 57.003906 36.003906 56.28125 36.707031 55.5625 37.492188 C 55.414062 37.675781 55.179688 37.867188 55.03125 38.050781 C 54.546875 38.644531 54.109375 39.273438 53.714844 39.945312 C 53.460938 40.347656 53.253906 40.785156 52.964844 41.234375 C 52.714844 41.636719 52.542969 42.03125 52.289062 42.433594 C 52.007812 42.96875 51.726562 43.5 51.445312 44.03125 L 51.433594 43.488281 C 51.449219 42.8125 51.425781 42.1875 51.40625 41.5625 C 51.382812 40.933594 51.355469 40.226562 51.371094 39.550781 C 51.429688 38.917969 51.445312 38.246094 51.527344 37.398438 C 51.511719 37.234375 51.578125 37.058594 51.5625 36.890625 C 51.582031 36.679688 51.566406 36.515625 51.585938 36.304688 C 51.578125 36.21875 51.570312 36.136719 51.605469 36.089844 C 51.625 35.878906 51.609375 35.714844 51.675781 35.539062 C 51.75 35.449219 51.898438 35.265625 51.929688 35.136719 C 52.144531 34.777344 52.320312 34.46875 52.539062 34.109375 C 53.050781 33.386719 53.609375 32.703125 54.078125 31.941406 C 54.546875 31.183594 55.050781 30.375 55.472656 29.578125 C 55.933594 28.734375 56.394531 27.894531 56.859375 27.132812 C 57.28125 26.335938 57.878906 25.605469 58.386719 24.800781 C 58.601562 24.441406 58.816406 24.085938 59.03125 23.726562 C 59.246094 23.371094 59.453125 22.929688 59.667969 22.574219 C 59.839844 22.179688 60.054688 21.820312 60.1875 21.472656 C 60.355469 21.078125 60.480469 20.648438 60.613281 20.296875 C 60.980469 19.378906 61.265625 18.472656 61.503906 17.523438 C 61.707031 16.625 61.992188 15.714844 62.148438 14.777344 C 62.226562 14.308594 62.257812 13.800781 62.300781 13.378906 C 62.332031 12.871094 62.410156 12.402344 62.488281 11.933594 C 62.636719 10.914062 62.65625 9.863281 62.675781 8.8125 C 62.667969 7.890625 62.703125 7.007812 62.695312 6.085938 C 62.667969 5.835938 62.644531 5.589844 62.535156 5.347656 C 62.425781 5.105469 62.382812 5.070312 62.234375 4.875 C 62.558594 4.757812 62.421875 4.644531 62.375 4.609375 Z M 70.554688 123.417969 C 70.507812 123.378906 70.507812 123.378906 70.554688 123.417969 C 70.507812 123.378906 70.507812 123.378906 70.554688 123.417969 Z M 70.554688 123.417969 " fill-opacity="1" fill-rule="nonzero"/></g></g></g><g clip-path="url(#f9986aa975)"><g clip-path="url(#3d099fbd96)"><g clip-path="url(#d8ea87488d)"><path fill="#b9bfa7" d="M 66.273438 31.085938 C 66.234375 31.128906 66.152344 31.136719 66.117188 31.183594 C 66.152344 31.136719 66.191406 31.09375 66.273438 31.085938 Z M 66.273438 31.085938 " fill-opacity="1" fill-rule="nonzero"/></g></g></g></svg>