<svg xmlns="http://www.w3.org/2000/svg" xmlns:xlink="http://www.w3.org/1999/xlink" width="108" zoomAndPan="magnify" viewBox="0 0 80.25 80.999996" height="108" preserveAspectRatio="xMidYMid meet" version="1.0"><defs><clipPath id="149db3d0ce"><path d="M 13 0.390625 L 67 0.390625 L 67 33 L 13 33 Z M 13 0.390625 " clip-rule="nonzero"/></clipPath><clipPath id="e964035d11"><path d="M 0.640625 17 L 31 17 L 31 33 L 0.640625 33 Z M 0.640625 17 " clip-rule="nonzero"/></clipPath><clipPath id="d8734845df"><path d="M 49 17 L 79.402344 17 L 79.402344 33 L 49 33 Z M 49 17 " clip-rule="nonzero"/></clipPath><clipPath id="4fdd953e90"><path d="M 5 34 L 33 34 L 33 79.15625 L 5 79.15625 Z M 5 34 " clip-rule="nonzero"/></clipPath><clipPath id="63c9499eca"><path d="M 35 34 L 45 34 L 45 79.15625 L 35 79.15625 Z M 35 34 " clip-rule="nonzero"/></clipPath><clipPath id="821ddedeb1"><path d="M 47 34 L 75 34 L 75 79.15625 L 47 79.15625 Z M 47 34 " clip-rule="nonzero"/></clipPath><clipPath id="cd09681447"><path d="M 13 1.164062 L 67 1.164062 L 67 34 L 13 34 Z M 13 1.164062 " clip-rule="nonzero"/></clipPath><clipPath id="340aaea8d5"><path d="M 0.640625 18 L 31 18 L 31 34 L 0.640625 34 Z M 0.640625 18 " clip-rule="nonzero"/></clipPath><clipPath id="19c8fdb397"><path d="M 49 18 L 79.402344 18 L 79.402344 34 L 49 34 Z M 49 18 " clip-rule="nonzero"/></clipPath><clipPath id="a1e2db05a1"><path d="M 5 35 L 33 35 L 33 79.929688 L 5 79.929688 Z M 5 35 " clip-rule="nonzero"/></clipPath><clipPath id="f5212ede4a"><path d="M 35 35 L 45 35 L 45 79.929688 L 35 79.929688 Z M 35 35 " clip-rule="nonzero"/></clipPath><clipPath id="80fc300885"><path d="M 47 35 L 75 35 L 75 79.929688 L 47 79.929688 Z M 47 35 " clip-rule="nonzero"/></clipPath></defs><g clip-path="url(#149db3d0ce)"><path fill="#faf6f6" d="M 47.472656 17.648438 C 52.53125 17.191406 57.480469 15.945312 62.265625 14.261719 C 63.390625 13.84375 64.664062 13.523438 65.441406 12.527344 C 66.378906 11.421875 66.476562 9.769531 65.816406 8.496094 C 64.789062 6.445312 63.796875 4.375 62.730469 2.34375 C 62.203125 1.273438 61.105469 0.667969 59.984375 0.390625 L 59.289062 0.390625 C 57.734375 0.582031 56.179688 0.773438 54.667969 1.179688 C 50.292969 2.34375 46.304688 5.078125 43.796875 8.871094 C 44.847656 9.171875 45.703125 9.847656 46.238281 10.800781 C 49.339844 9.144531 52.746094 7.753906 56.316406 7.820312 C 57.375 7.90625 57.652344 9.515625 56.777344 10.035156 C 56.136719 10.289062 55.433594 10.285156 54.757812 10.390625 C 51.691406 10.742188 48.828125 12.0625 46.238281 13.691406 C 46.214844 15.003906 46.210938 16.320312 46.207031 17.632812 C 45.390625 17.640625 44.574219 17.644531 43.761719 17.636719 C 43.695312 15.90625 43.84375 14.171875 43.699219 12.445312 C 43.65625 11.707031 42.859375 11.441406 42.230469 11.484375 C 40.601562 11.480469 38.957031 11.398438 37.328125 11.535156 C 36.730469 11.566406 36.367188 12.15625 36.382812 12.714844 C 36.296875 14.351562 36.40625 15.996094 36.351562 17.636719 C 35.535156 17.644531 34.71875 17.644531 33.902344 17.636719 C 33.90625 16.320312 33.898438 15.007812 33.875 13.691406 C 30.863281 11.71875 27.40625 10.445312 23.804688 10.179688 C 22.507812 10.117188 22.507812 7.933594 23.785156 7.824219 C 27.359375 7.75 30.777344 9.152344 33.882812 10.800781 C 34.4375 9.863281 35.296875 9.1875 36.335938 8.863281 C 34.277344 5.738281 31.1875 3.34375 27.738281 1.9375 C 25.542969 1.03125 23.183594 0.644531 20.832031 0.390625 L 20.136719 0.390625 C 19.167969 0.652344 18.179688 1.097656 17.632812 1.980469 C 16.820312 3.273438 16.246094 4.695312 15.527344 6.042969 C 15 7.152344 14.328125 8.199219 13.976562 9.382812 C 13.507812 11.136719 14.582031 13.097656 16.300781 13.675781 C 21.546875 15.6875 27.03125 17.121094 32.632812 17.648438 C 32.71875 22.566406 32.621094 27.488281 32.675781 32.40625 C 37.59375 32.429688 42.515625 32.425781 47.4375 32.410156 C 47.480469 27.488281 47.40625 22.566406 47.472656 17.648438 Z M 47.472656 17.648438 " fill-opacity="1" fill-rule="nonzero"/></g><g clip-path="url(#e964035d11)"><path fill="#faf6f6" d="M 30.195312 32.410156 C 30.207031 27.488281 30.214844 22.566406 30.195312 17.644531 C 21.566406 17.632812 12.941406 17.628906 4.316406 17.644531 C 2.566406 17.585938 1.164062 18.945312 0.640625 20.523438 L 0.640625 29.519531 C 1.15625 31.109375 2.566406 32.46875 4.320312 32.410156 C 12.941406 32.425781 21.566406 32.425781 30.195312 32.410156 Z M 30.195312 32.410156 " fill-opacity="1" fill-rule="nonzero"/></g><g clip-path="url(#d8734845df)"><path fill="#faf6f6" d="M 75.796875 17.644531 C 67.171875 17.628906 58.546875 17.632812 49.921875 17.644531 C 49.898438 22.5625 49.90625 27.484375 49.921875 32.40625 C 58.546875 32.429688 67.171875 32.429688 75.796875 32.40625 C 77.546875 32.46875 78.949219 31.109375 79.476562 29.53125 L 79.476562 20.535156 C 78.960938 18.949219 77.546875 17.585938 75.796875 17.644531 Z M 75.796875 17.644531 " fill-opacity="1" fill-rule="nonzero"/></g><g clip-path="url(#4fdd953e90)"><path fill="#faf6f6" d="M 5.574219 34.894531 C 5.558594 48.445312 5.5625 61.996094 5.574219 75.546875 C 5.519531 77.296875 6.875 78.699219 8.453125 79.226562 L 32.667969 79.226562 C 32.660156 64.449219 32.679688 49.671875 32.65625 34.894531 C 23.632812 34.875 14.605469 34.875 5.574219 34.894531 Z M 5.574219 34.894531 " fill-opacity="1" fill-rule="nonzero"/></g><g clip-path="url(#63c9499eca)"><path fill="#faf6f6" d="M 35.140625 34.894531 C 35.117188 49.671875 35.132812 64.449219 35.128906 79.226562 L 44.984375 79.226562 C 44.980469 64.449219 44.996094 49.671875 44.980469 34.894531 C 41.699219 34.871094 38.417969 34.875 35.140625 34.894531 Z M 35.140625 34.894531 " fill-opacity="1" fill-rule="nonzero"/></g><g clip-path="url(#821ddedeb1)"><path fill="#faf6f6" d="M 47.460938 34.890625 C 47.433594 49.671875 47.453125 64.449219 47.445312 79.226562 L 71.648438 79.226562 C 73.234375 78.710938 74.59375 77.300781 74.539062 75.546875 C 74.554688 61.996094 74.554688 48.445312 74.535156 34.894531 C 65.507812 34.875 56.484375 34.875 47.460938 34.890625 Z M 47.460938 34.890625 " fill-opacity="1" fill-rule="nonzero"/></g><g clip-path="url(#cd09681447)"><path fill="#faf6f6" d="M 47.472656 18.421875 C 52.53125 17.964844 57.480469 16.71875 62.265625 15.035156 C 63.390625 14.617188 64.664062 14.296875 65.441406 13.300781 C 66.378906 12.191406 66.476562 10.542969 65.816406 9.269531 C 64.789062 7.21875 63.796875 5.148438 62.730469 3.117188 C 62.203125 2.042969 61.105469 1.4375 59.984375 1.164062 L 59.289062 1.164062 C 57.734375 1.355469 56.179688 1.546875 54.667969 1.953125 C 50.292969 3.117188 46.304688 5.851562 43.796875 9.640625 C 44.847656 9.941406 45.703125 10.621094 46.238281 11.574219 C 49.339844 9.914062 52.746094 8.527344 56.316406 8.59375 C 57.375 8.675781 57.652344 10.285156 56.777344 10.808594 C 56.136719 11.0625 55.433594 11.058594 54.757812 11.164062 C 51.691406 11.515625 48.828125 12.835938 46.238281 14.464844 C 46.214844 15.777344 46.210938 17.089844 46.207031 18.402344 C 45.390625 18.414062 44.574219 18.417969 43.761719 18.40625 C 43.695312 16.679688 43.84375 14.941406 43.699219 13.21875 C 43.65625 12.476562 42.859375 12.214844 42.230469 12.257812 C 40.601562 12.253906 38.957031 12.171875 37.328125 12.308594 C 36.730469 12.339844 36.367188 12.929688 36.382812 13.488281 C 36.296875 15.125 36.40625 16.769531 36.351562 18.410156 C 35.535156 18.417969 34.71875 18.417969 33.902344 18.40625 C 33.90625 17.089844 33.898438 15.78125 33.875 14.464844 C 30.863281 12.492188 27.40625 11.21875 23.804688 10.953125 C 22.507812 10.886719 22.507812 8.707031 23.785156 8.597656 C 27.359375 8.519531 30.777344 9.925781 33.882812 11.574219 C 34.4375 10.636719 35.296875 9.957031 36.335938 9.636719 C 34.277344 6.507812 31.1875 4.117188 27.738281 2.707031 C 25.542969 1.804688 23.183594 1.417969 20.832031 1.164062 L 20.136719 1.164062 C 19.167969 1.425781 18.179688 1.871094 17.632812 2.753906 C 16.820312 4.046875 16.246094 5.46875 15.527344 6.8125 C 15 7.921875 14.328125 8.972656 13.976562 10.15625 C 13.507812 11.910156 14.582031 13.867188 16.300781 14.449219 C 21.546875 16.460938 27.03125 17.894531 32.632812 18.421875 C 32.71875 23.339844 32.621094 28.261719 32.675781 33.179688 C 37.59375 33.203125 42.515625 33.195312 47.4375 33.183594 C 47.480469 28.261719 47.40625 23.339844 47.472656 18.421875 Z M 47.472656 18.421875 " fill-opacity="1" fill-rule="nonzero"/></g><g clip-path="url(#340aaea8d5)"><path fill="#faf6f6" d="M 30.195312 33.183594 C 30.207031 28.261719 30.214844 23.339844 30.195312 18.417969 C 21.566406 18.402344 12.941406 18.398438 4.316406 18.417969 C 2.566406 18.359375 1.164062 19.71875 0.640625 21.292969 L 0.640625 30.292969 C 1.15625 31.882812 2.566406 33.238281 4.320312 33.183594 C 12.941406 33.195312 21.566406 33.195312 30.195312 33.183594 Z M 30.195312 33.183594 " fill-opacity="1" fill-rule="nonzero"/></g><g clip-path="url(#19c8fdb397)"><path fill="#faf6f6" d="M 75.796875 18.417969 C 67.171875 18.398438 58.546875 18.402344 49.921875 18.414062 C 49.898438 23.335938 49.90625 28.257812 49.921875 33.179688 C 58.546875 33.199219 67.171875 33.199219 75.796875 33.179688 C 77.546875 33.238281 78.949219 31.882812 79.476562 30.300781 L 79.476562 21.304688 C 78.960938 19.722656 77.546875 18.359375 75.796875 18.417969 Z M 75.796875 18.417969 " fill-opacity="1" fill-rule="nonzero"/></g><g clip-path="url(#a1e2db05a1)"><path fill="#faf6f6" d="M 5.574219 35.667969 C 5.558594 49.214844 5.5625 62.769531 5.574219 76.320312 C 5.519531 78.066406 6.875 79.472656 8.453125 80 L 32.667969 80 C 32.660156 65.222656 32.679688 50.441406 32.65625 35.667969 C 23.632812 35.644531 14.605469 35.644531 5.574219 35.667969 Z M 5.574219 35.667969 " fill-opacity="1" fill-rule="nonzero"/></g><g clip-path="url(#f5212ede4a)"><path fill="#faf6f6" d="M 35.140625 35.667969 C 35.117188 50.441406 35.132812 65.21875 35.128906 80 L 44.984375 80 C 44.980469 65.21875 44.996094 50.445312 44.980469 35.667969 C 41.699219 35.640625 38.417969 35.644531 35.140625 35.667969 Z M 35.140625 35.667969 " fill-opacity="1" fill-rule="nonzero"/></g><g clip-path="url(#80fc300885)"><path fill="#faf6f6" d="M 47.460938 35.664062 C 47.433594 50.441406 47.453125 65.222656 47.445312 80 L 71.648438 80 C 73.234375 79.484375 74.59375 78.070312 74.539062 76.320312 C 74.554688 62.769531 74.554688 49.214844 74.535156 35.667969 C 65.507812 35.644531 56.484375 35.648438 47.460938 35.664062 Z M 47.460938 35.664062 " fill-opacity="1" fill-rule="nonzero"/></g></svg>