<svg xmlns="http://www.w3.org/2000/svg" xmlns:xlink="http://www.w3.org/1999/xlink" width="497" zoomAndPan="magnify" viewBox="0 0 372.75 70.499998" height="94" preserveAspectRatio="xMidYMid meet" version="1.0"><defs><clipPath id="6c6971be7f"><path d="M 1.59375 0.472656 L 370.972656 0.472656 L 370.972656 69 L 1.59375 69 Z M 1.59375 0.472656 " clip-rule="nonzero"/></clipPath></defs><g clip-path="url(#6c6971be7f)"><path fill="#b9bfa7" d="M 356.488281 6.652344 C 354.382812 5.914062 351.578125 5.636719 348.734375 5.398438 C 348.921875 5.25 349 5.023438 348.976562 4.742188 C 347.378906 4.6875 346.710938 5.234375 344.984375 5.097656 C 345.519531 4.757812 345.085938 4.480469 344.230469 4.613281 C 344.722656 4.191406 346.273438 4.449219 346.230469 4.925781 C 346.546875 4.878906 346.484375 4.597656 346.226562 4.597656 C 350.296875 4.816406 354.488281 4.140625 357.972656 4.835938 C 355.925781 3.425781 349.289062 3.453125 346.214844 2.632812 C 346.40625 2.253906 347.757812 2.464844 347.46875 2.953125 C 347.796875 2.785156 348.394531 2.789062 348.460938 2.453125 C 351.171875 2.988281 354.253906 3.191406 356.957031 3.046875 C 360.046875 4.222656 364.210938 4.6875 365.976562 6.746094 C 366.089844 8.078125 365.734375 8.785156 366.003906 9.855469 C 365.207031 11.242188 364.328125 12.578125 362.78125 13.480469 C 363.867188 14.824219 364.503906 15.839844 364.558594 17.230469 C 364.230469 17.5 362.71875 17.835938 363.816406 18.058594 C 363.296875 18.265625 362.765625 18.464844 362.320312 18.722656 C 362.449219 19.148438 363.703125 19.265625 363.078125 19.695312 C 362.214844 19.835938 362.117188 19.460938 361.328125 19.546875 C 361.519531 20.507812 363.355469 20.90625 363.847656 22.144531 C 364.457031 23.671875 363.320312 25.5 363.386719 27.386719 C 360.941406 27.402344 361.808594 29.808594 358.40625 29.550781 C 360.976562 30.597656 364.730469 31.675781 367.914062 31.769531 C 368.488281 32.433594 369.3125 34.191406 367.9375 34.714844 C 368.230469 35.011719 368.59375 35.265625 368.941406 35.527344 C 368.417969 35.933594 366.390625 35.550781 367.199219 36.359375 C 364.703125 36.765625 361.476562 36.179688 359.714844 37.558594 C 359.746094 37.976562 360.648438 37.816406 360.96875 38.042969 C 361.046875 38.457031 360.507812 39 360.730469 39.351562 C 362.128906 39.691406 361.433594 39.96875 362.734375 39.992188 C 362.425781 40.445312 361.949219 40.789062 360.988281 40.820312 C 361.753906 41.242188 363.15625 41.242188 363.496094 41.949219 C 360.648438 42.730469 359.40625 42.195312 356.253906 42.332031 C 360.773438 43.160156 364.8125 44.304688 368.519531 45.679688 C 368.566406 46.390625 368.613281 47.109375 368.027344 46.992188 C 368.5 47.503906 368.871094 47.125 369.273438 46.820312 C 369.546875 48.226562 369.6875 49.089844 371.046875 49.917969 C 370.554688 51.082031 368.8125 50.621094 367.308594 50.925781 C 367.53125 51.710938 367.871094 52.414062 369.066406 52.546875 C 368.285156 54.039062 364.035156 53.832031 362.585938 54.394531 C 363.160156 55.371094 364.722656 54.5625 366.085938 54.367188 C 365.742188 55.035156 366.632812 54.882812 366.589844 55.347656 C 362.148438 55.511719 361.75 56.851562 357.105469 56.398438 C 356.984375 60.660156 353.707031 62.890625 351.933594 66.09375 C 349.761719 65.695312 348.808594 66.417969 347.691406 67.105469 C 347.582031 67.5625 349.050781 66.964844 348.941406 67.421875 C 346.992188 67.996094 344.25 67.90625 341.453125 68.132812 C 338.84375 68.347656 336.644531 68.351562 334.957031 67.691406 C 322.097656 69.316406 312.019531 68.035156 298.492188 68.777344 C 298.269531 68.253906 299.316406 68.550781 299.234375 68.121094 C 295.078125 68.101562 287.789062 69.328125 283.75 68.394531 C 282.945312 68.550781 283.394531 67.863281 282.996094 67.746094 C 279.835938 67.84375 276.996094 68.898438 275.003906 67.804688 C 270.511719 67.554688 265.527344 68.898438 262.261719 67.898438 C 249.132812 68.125 238.554688 68.714844 227.53125 67.5 C 221.253906 67.199219 216.128906 67.632812 209.792969 67.304688 C 210.683594 66.523438 212.773438 66.511719 214.53125 66.289062 C 212.222656 66.019531 208.460938 65.964844 205.289062 66.191406 C 194.6875 66.957031 183.636719 66.707031 172.816406 66.269531 C 172.316406 65.894531 172.875 66.085938 173.0625 65.777344 C 170.933594 65.25 168.703125 65.984375 166.816406 66.152344 C 166.347656 65.84375 166.785156 65.738281 166.8125 65.332031 C 164.675781 65.121094 165.304688 65.824219 164.070312 66.003906 C 162.90625 66.160156 164.410156 65.582031 163.566406 65.515625 C 163.035156 65.445312 163.09375 65.753906 163.070312 66.011719 C 160.207031 65.789062 157.917969 65.640625 154.578125 65.910156 C 153.546875 65.996094 154.769531 65.5 154.074219 65.261719 C 149.871094 65.203125 143.914062 66.15625 139.335938 65.695312 C 137.167969 65.480469 135.792969 65.722656 133.339844 65.746094 C 131.242188 65.761719 129.191406 64.902344 126.839844 64.644531 C 124.90625 64.4375 122.023438 65.109375 119.097656 64.703125 C 119.148438 64.464844 119.839844 64.640625 119.839844 64.371094 C 111.34375 64.664062 100.914062 64.703125 92.867188 65.550781 C 83.160156 64.925781 71.929688 66.511719 63.148438 66.425781 C 63.359375 66.175781 63.773438 66.066406 64.394531 66.085938 C 55.804688 65.429688 42.613281 65.316406 31.667969 65.675781 C 30.628906 65.769531 30.605469 66.507812 29.175781 66.347656 C 28.511719 67.285156 26.503906 67.351562 25.1875 67.6875 C 24.957031 67.746094 24.210938 68.179688 23.941406 68.1875 C 19.953125 68.355469 21.140625 65.332031 18.914062 63.804688 C 17.734375 64.285156 16.511719 64.472656 15.414062 63.832031 C 15.496094 62.796875 17.324219 62.890625 17.902344 62.179688 C 17.578125 61.949219 16.496094 61.652344 16.40625 62.1875 C 15.835938 61.859375 15.847656 61.335938 16.398438 61.042969 C 15.511719 60.960938 15.789062 61.625 14.902344 61.542969 C 14.792969 61.203125 15.070312 61.109375 15.148438 60.886719 C 14.351562 60.796875 14.378906 61.199219 13.898438 60.898438 C 13.832031 59.875 13.957031 58.980469 14.882812 58.597656 C 9.859375 57.554688 5.789062 54.898438 1.59375 52.808594 C 1.703125 51.792969 2.972656 51.527344 3.074219 50.507812 C 6.136719 49.90625 8.105469 49.605469 11.808594 49.460938 C 12.402344 49.136719 11.347656 48.546875 12.050781 48.148438 C 13.101562 48.300781 14.566406 48.253906 15.296875 47.46875 C 14.378906 47.234375 13.925781 47.421875 12.796875 47.160156 C 12.960938 46.78125 13.625 46.714844 13.789062 46.332031 C 12.203125 45.398438 14.726562 43.9375 13.761719 42.898438 C 14.1875 42.519531 15.171875 43.15625 16.011719 43.046875 C 14.699219 42.542969 17.351562 42.753906 17.753906 42.378906 C 17.648438 42.039062 15.667969 42.746094 16.257812 42.0625 C 13.757812 42.320312 14.492188 41.957031 12.507812 42.089844 C 12.8125 39.601562 16.652344 38.636719 20.71875 37.445312 C 20.148438 36.949219 19.203125 36.003906 19.703125 35.328125 C 19.363281 35.011719 18.304688 35.609375 17.707031 35.667969 C 17.707031 35.179688 18.351562 35.105469 18.449219 34.683594 C 17.855469 34.285156 17.984375 34.929688 17.199219 34.851562 C 17.9375 33.886719 19.292969 34.199219 20.441406 33.683594 C 19.304688 33.0625 18.117188 33.65625 16.695312 33.714844 C 16.800781 33.453125 17.476562 33.566406 17.191406 33.054688 C 16.480469 33.03125 16.703125 33.613281 15.695312 33.390625 C 15.570312 32.878906 16.457031 33.015625 16.1875 32.40625 C 14.898438 32.597656 13.328125 32.753906 12.191406 32.597656 C 12.183594 32 13.0625 31.96875 13.433594 31.609375 C 12.605469 31.34375 12.023438 31.777344 10.9375 31.789062 C 10.835938 31.070312 10.828125 30.3125 12.671875 30.140625 C 12.589844 29.761719 12.710938 29.511719 12.917969 29.320312 C 11.871094 28.859375 11.410156 29.140625 9.167969 29.019531 C 8.769531 28.285156 10.203125 27.738281 9.902344 27.214844 C 9.214844 26.019531 7.824219 26.246094 5.890625 26.261719 C 6.691406 25.601562 6.316406 25.175781 7.128906 24.617188 C 5.878906 24.125 6.800781 23.519531 6.863281 22.492188 C 7.3125 22.46875 7.390625 22.6875 7.863281 22.648438 C 8.429688 20.894531 12.800781 21.597656 13.335938 19.828125 C 12.183594 19.5 12.898438 17.929688 11.820312 17.542969 C 13.214844 15.402344 11.960938 11.554688 16.519531 11.453125 C 16.257812 10.75 15.441406 10.421875 14.015625 10.492188 C 14.246094 9.742188 13.484375 9.640625 12.515625 9.683594 C 12.914062 8.847656 13.0625 8.789062 12.003906 8.378906 C 13.136719 6.9375 12.84375 5.488281 13.964844 3.453125 C 24.289062 4.023438 38.605469 3.996094 47.699219 4.511719 C 47.941406 4.507812 47.890625 4.3125 47.949219 4.183594 C 49.925781 5.089844 52.988281 4.5625 54.941406 3.96875 C 54.808594 4.101562 54.683594 4.238281 54.695312 4.460938 C 55.785156 4.570312 56.101562 4.175781 57.191406 4.28125 C 59.339844 4.628906 67.300781 3.601562 72.421875 3.515625 C 78.042969 3.417969 83.894531 2.65625 86.652344 1.9375 C 87.542969 3.335938 90.402344 2.796875 93.402344 2.703125 C 94.160156 2.636719 93.828125 3.296875 94.40625 3.351562 C 95.933594 2.621094 100.386719 3.742188 102.144531 2.804688 C 102.292969 2.375 102.042969 2.214844 101.394531 2.316406 C 103.164062 1.738281 105.386719 2.375 107.386719 1.945312 C 107.222656 1.78125 106.808594 1.78125 106.882812 1.457031 C 110.300781 1.640625 113.925781 2.179688 116.136719 3.023438 C 117.351562 2.6875 118.105469 3.195312 119.136719 3.328125 C 122.109375 3.71875 126.59375 2.964844 130.128906 2.921875 C 141.019531 2.785156 151.722656 3.683594 161.855469 3.015625 C 162.019531 3.179688 162.433594 3.179688 162.359375 3.503906 C 170.269531 3.375 176.570312 2.785156 184.335938 2.847656 C 184.410156 2.417969 183.8125 2.429688 183.332031 2.363281 C 185.320312 2.1875 187.191406 2.796875 188.832031 3.140625 C 190.5625 1.996094 191.90625 3.296875 194.328125 3.265625 C 194.472656 3.625 193.855469 3.503906 193.832031 3.761719 C 201.960938 4.324219 209.226562 1.777344 217.558594 3.09375 C 217.878906 2.8125 218.378906 2.644531 219.054688 2.59375 C 218.820312 3.640625 216.507812 3.339844 215.316406 3.765625 C 219.144531 3.792969 223.765625 3.253906 228.308594 4.160156 C 229.886719 2.625 234.410156 3.558594 238.039062 3.105469 C 238.113281 3.371094 237.808594 3.390625 237.792969 3.601562 C 238.972656 3.585938 239.691406 3.875 240.796875 3.90625 C 240.8125 3.347656 239.867188 3.425781 239.042969 3.425781 C 241.035156 2.617188 243.832031 4.011719 244.78125 2.402344 C 246.132812 2.59375 247.042969 2.59375 247.777344 2.050781 C 247.847656 2.316406 247.542969 2.335938 247.53125 2.546875 C 254.445312 3.453125 262.316406 3.34375 271.265625 3.351562 C 271.148438 2.71875 269.542969 3.078125 269.011719 2.714844 C 277.496094 1.898438 287.066406 4.320312 295.742188 2.515625 C 294.5 2.007812 291.695312 2.105469 290.738281 1.902344 C 290.222656 1.808594 289.101562 2.117188 288.992188 1.75 C 291.84375 1.8125 292.824219 1.328125 295.234375 1.375 C 295.621094 1.191406 295.75 0.839844 296.480469 0.878906 C 295.941406 1.222656 296.609375 1.34375 296.488281 1.859375 C 297.570312 2.011719 297.871094 1.664062 298.484375 1.515625 C 299.855469 2.234375 301.121094 1.949219 302.734375 1.484375 C 311.402344 3.074219 322.476562 1.671875 332.214844 2.246094 C 329.863281 3.054688 326.367188 2.242188 324.226562 3.289062 C 324.660156 3.714844 326.707031 3.066406 326.234375 4.09375 C 327.300781 4.1875 327.246094 3.550781 328.226562 3.589844 C 328.550781 3.800781 328.550781 4.191406 328.234375 4.410156 C 330.265625 4.011719 334.027344 4.085938 336.480469 5.003906 C 335.734375 5.007812 334.984375 5.015625 334.230469 5.019531 C 339.425781 5.414062 347.441406 6.359375 353.476562 6.1875 C 354.019531 7.023438 354.535156 6.210938 356.488281 6.652344 Z M 176.851562 3.886719 C 178.089844 3.800781 179.394531 3.992188 178.351562 4.527344 C 179.371094 4.585938 179.628906 4.160156 180.347656 4.023438 C 179.289062 4.023438 179.75 3.65625 180.089844 3.371094 C 179.128906 3.972656 177 2.808594 176.851562 3.886719 Z M 298.25 2.824219 C 297.9375 2.789062 297.738281 2.574219 297.75 2.988281 C 299.03125 2.960938 300.25 2.8125 301 2.964844 C 300.921875 2.269531 298.835938 2.390625 298.25 2.824219 Z M 229.332031 6.933594 C 229.09375 7.53125 230.730469 7.273438 230.582031 6.925781 C 229.960938 6.910156 229.804688 6.625 229.332031 6.933594 Z M 231.082031 7.25 C 231.921875 7.136719 233.40625 7.441406 233.828125 7.066406 C 232.496094 6.984375 231.941406 6.535156 231.082031 7.25 Z M 193.917969 15.054688 C 194.632812 15.542969 196.046875 14.929688 196.171875 15.527344 C 196.914062 15.535156 197.4375 15.039062 197.921875 15.351562 C 197.917969 15.136719 197.917969 14.917969 197.914062 14.699219 C 196.675781 14.875 194.972656 14.753906 193.917969 15.054688 Z M 310.890625 23.027344 C 311.640625 22.859375 312.707031 22.890625 312.886719 22.359375 C 311.90625 22.378906 310.691406 22.246094 310.890625 23.027344 Z M 316.394531 24.132812 C 319.855469 23.808594 314.898438 23.660156 314.398438 24.148438 C 315.226562 24.109375 315.878906 24.179688 316.394531 24.132812 Z M 89.894531 34.804688 C 90.089844 34.9375 91.421875 34.96875 91.386719 34.46875 C 90.726562 34.476562 89.917969 34.390625 89.894531 34.804688 Z M 164.402344 43.75 C 164.722656 43.140625 162.917969 43.109375 162.652344 43.4375 C 163.632812 43.273438 163.289062 44 164.402344 43.75 Z M 168.398438 43.71875 C 170.621094 44 172.472656 43.710938 175.144531 43.832031 C 173.777344 43.601562 169.78125 43.089844 168.398438 43.71875 Z M 181.390625 43.789062 C 181 43.777344 180.527344 43.816406 180.640625 43.464844 C 179.128906 43.8125 176.832031 43.441406 175.644531 43.503906 C 178.390625 44.042969 179.695312 44.164062 181.390625 43.789062 Z M 155.167969 44.636719 C 153.46875 44.902344 151.070312 44.214844 150.421875 44.835938 C 153.351562 45.273438 159.824219 45.449219 163.160156 44.738281 C 160.519531 44.570312 158.90625 44.183594 156.417969 44.464844 C 158.355469 45.058594 154.679688 44.257812 154.667969 44.3125 C 154.945312 44.347656 155.054688 44.492188 155.167969 44.636719 Z M 183.144531 44.429688 C 183.730469 44.425781 184.308594 44.421875 184.890625 44.414062 C 184.992188 43.757812 183.195312 44.15625 183.144531 44.429688 Z M 163.914062 44.734375 C 163.757812 44.746094 163.617188 44.761719 163.664062 44.898438 C 164.757812 44.976562 168.160156 44.761719 165.410156 44.722656 C 164.890625 44.367188 164.601562 44.875 164.160156 44.570312 C 164.144531 44.46875 164.121094 44.375 163.90625 44.40625 C 163.910156 44.515625 163.910156 44.625 163.914062 44.734375 Z M 149.679688 45.820312 C 149.429688 46.152344 148.753906 46.203125 148.4375 46.484375 C 153.875 46.738281 163.152344 46.515625 169.417969 46.328125 C 163.871094 45.449219 156.242188 46.382812 149.679688 45.820312 Z M 329.097656 52.347656 C 331.664062 53.386719 335.386719 53.769531 338.597656 53.589844 C 335.320312 53.445312 331.722656 51.839844 329.097656 52.347656 Z M 318.117188 54.070312 C 318.917969 54.558594 321.039062 54.457031 321.863281 54.042969 C 321.796875 54.417969 321.925781 54.65625 322.367188 54.691406 C 322.796875 54.355469 322.179688 54.375 322.609375 54.035156 C 321.226562 53.390625 319.761719 53.722656 318.117188 54.070312 Z M 313.621094 54.265625 C 314.621094 54.203125 315.007812 54.546875 316.121094 54.410156 C 316.035156 53.574219 313.636719 53.925781 313.621094 54.265625 Z M 335.363281 55.578125 C 336.179688 55.714844 336.917969 55.6875 338.363281 55.71875 C 338.335938 54.964844 336.199219 55.4375 335.363281 55.578125 Z M 112.835938 63.113281 C 112.21875 63.394531 110.410156 62.820312 109.589844 63.304688 C 110.144531 63.796875 112.46875 63.703125 112.835938 63.113281 Z M 221.511719 63.949219 C 220.597656 64.078125 220.121094 63.558594 219.511719 63.96875 C 220.441406 64.707031 222.523438 64.476562 224.261719 64.421875 C 227.066406 64.332031 229.714844 63.917969 232.503906 64.199219 C 229.847656 63.300781 223.585938 63.800781 221.511719 63.949219 Z M 236.5 64 C 237.597656 64.199219 240.175781 64.015625 241.746094 63.636719 C 239.910156 63.832031 236.757812 63.023438 236.5 64 Z M 251.734375 63.5625 C 251.683594 64.289062 249.292969 63.507812 249.246094 64.234375 C 250.492188 64.496094 251.386719 64.269531 252.492188 64.050781 C 252.613281 64.480469 252.691406 64.597656 253.25 65.023438 C 258.445312 63.585938 263.484375 65.878906 268.484375 64.421875 C 262.976562 63.710938 257.230469 64.503906 251.734375 63.5625 Z M 205.777344 64.554688 C 204.503906 64.558594 202.890625 63.859375 202.285156 64.910156 C 206.777344 65.175781 211.246094 65.050781 215.765625 64.15625 C 212.519531 64.140625 208.917969 64.546875 205.777344 64.554688 Z M 205.777344 64.554688 " fill-opacity="1" fill-rule="evenodd"/><path fill="#b9bfa7" d="M 356.488281 6.652344 C 354.382812 5.914062 351.578125 5.636719 348.734375 5.398438 C 348.921875 5.25 349 5.023438 348.976562 4.742188 C 347.378906 4.6875 346.710938 5.234375 344.984375 5.097656 C 345.519531 4.757812 345.085938 4.480469 344.230469 4.613281 C 344.722656 4.191406 346.273438 4.449219 346.230469 4.925781 C 346.546875 4.878906 346.484375 4.597656 346.226562 4.597656 C 350.296875 4.816406 354.488281 4.140625 357.972656 4.835938 C 355.925781 3.425781 349.289062 3.453125 346.214844 2.632812 C 346.40625 2.253906 347.757812 2.464844 347.46875 2.953125 C 347.796875 2.785156 348.394531 2.789062 348.460938 2.453125 C 351.171875 2.988281 354.253906 3.191406 356.957031 3.046875 C 360.046875 4.222656 364.210938 4.6875 365.976562 6.746094 C 366.089844 8.078125 365.734375 8.785156 366.003906 9.855469 C 365.207031 11.242188 364.328125 12.578125 362.78125 13.480469 C 363.867188 14.824219 364.503906 15.839844 364.558594 17.230469 C 364.230469 17.5 362.71875 17.835938 363.816406 18.058594 C 363.296875 18.265625 362.765625 18.464844 362.320312 18.722656 C 362.449219 19.148438 363.703125 19.265625 363.078125 19.695312 C 362.214844 19.835938 362.117188 19.460938 361.328125 19.546875 C 361.519531 20.507812 363.355469 20.90625 363.847656 22.144531 C 364.457031 23.671875 363.320312 25.5 363.386719 27.386719 C 360.941406 27.402344 361.808594 29.808594 358.40625 29.550781 C 360.976562 30.597656 364.730469 31.675781 367.914062 31.769531 C 368.488281 32.433594 369.3125 34.191406 367.9375 34.714844 C 368.230469 35.011719 368.59375 35.265625 368.941406 35.527344 C 368.417969 35.933594 366.390625 35.550781 367.199219 36.359375 C 364.703125 36.765625 361.476562 36.179688 359.714844 37.558594 C 359.746094 37.976562 360.648438 37.816406 360.96875 38.042969 C 361.046875 38.457031 360.507812 39 360.730469 39.351562 C 362.128906 39.691406 361.433594 39.96875 362.734375 39.992188 C 362.425781 40.445312 361.949219 40.789062 360.988281 40.820312 C 361.753906 41.242188 363.15625 41.242188 363.496094 41.949219 C 360.648438 42.730469 359.40625 42.195312 356.253906 42.332031 C 360.773438 43.160156 364.8125 44.304688 368.519531 45.679688 C 368.566406 46.390625 368.613281 47.109375 368.027344 46.992188 C 368.5 47.503906 368.871094 47.125 369.273438 46.820312 C 369.546875 48.226562 369.6875 49.089844 371.046875 49.917969 C 370.554688 51.082031 368.8125 50.621094 367.308594 50.925781 C 367.53125 51.710938 367.871094 52.414062 369.066406 52.546875 C 368.285156 54.039062 364.035156 53.832031 362.585938 54.394531 C 363.160156 55.371094 364.722656 54.5625 366.085938 54.367188 C 365.742188 55.035156 366.632812 54.882812 366.589844 55.347656 C 362.148438 55.511719 361.75 56.851562 357.105469 56.398438 C 356.984375 60.660156 353.707031 62.890625 351.933594 66.09375 C 349.761719 65.695312 348.808594 66.417969 347.691406 67.105469 C 347.582031 67.5625 349.050781 66.964844 348.941406 67.421875 C 346.992188 67.996094 344.25 67.90625 341.453125 68.132812 C 338.84375 68.347656 336.644531 68.351562 334.957031 67.691406 C 322.097656 69.316406 312.019531 68.035156 298.492188 68.777344 C 298.269531 68.253906 299.316406 68.550781 299.234375 68.121094 C 295.078125 68.101562 287.789062 69.328125 283.75 68.394531 C 282.945312 68.550781 283.394531 67.863281 282.996094 67.746094 C 279.835938 67.84375 276.996094 68.898438 275.003906 67.804688 C 270.511719 67.554688 265.527344 68.898438 262.261719 67.898438 C 249.132812 68.125 238.554688 68.714844 227.53125 67.5 C 221.253906 67.199219 216.128906 67.632812 209.792969 67.304688 C 210.683594 66.523438 212.773438 66.511719 214.53125 66.289062 C 212.222656 66.019531 208.460938 65.964844 205.289062 66.191406 C 194.6875 66.957031 183.636719 66.707031 172.816406 66.269531 C 172.316406 65.894531 172.875 66.085938 173.0625 65.777344 C 170.933594 65.25 168.703125 65.984375 166.816406 66.152344 C 166.347656 65.84375 166.785156 65.738281 166.8125 65.332031 C 164.675781 65.121094 165.304688 65.824219 164.070312 66.003906 C 162.90625 66.160156 164.410156 65.582031 163.566406 65.515625 C 163.035156 65.445312 163.09375 65.753906 163.070312 66.011719 C 160.207031 65.789062 157.917969 65.640625 154.578125 65.910156 C 153.546875 65.996094 154.769531 65.5 154.074219 65.261719 C 149.871094 65.203125 143.914062 66.15625 139.335938 65.695312 C 137.167969 65.480469 135.792969 65.722656 133.339844 65.746094 C 131.242188 65.761719 129.191406 64.902344 126.839844 64.644531 C 124.90625 64.4375 122.023438 65.109375 119.097656 64.703125 C 119.148438 64.464844 119.839844 64.640625 119.839844 64.371094 C 111.34375 64.664062 100.914062 64.703125 92.867188 65.550781 C 83.160156 64.925781 71.929688 66.511719 63.148438 66.425781 C 63.359375 66.175781 63.773438 66.066406 64.394531 66.085938 C 55.804688 65.429688 42.613281 65.316406 31.667969 65.675781 C 30.628906 65.769531 30.605469 66.507812 29.175781 66.347656 C 28.511719 67.285156 26.503906 67.351562 25.1875 67.6875 C 24.957031 67.746094 24.210938 68.179688 23.941406 68.1875 C 19.953125 68.355469 21.140625 65.332031 18.914062 63.804688 C 17.734375 64.285156 16.511719 64.472656 15.414062 63.832031 C 15.496094 62.796875 17.324219 62.890625 17.902344 62.179688 C 17.578125 61.949219 16.496094 61.652344 16.40625 62.1875 C 15.835938 61.859375 15.847656 61.335938 16.398438 61.042969 C 15.511719 60.960938 15.789062 61.625 14.902344 61.542969 C 14.792969 61.203125 15.070312 61.109375 15.148438 60.886719 C 14.351562 60.796875 14.378906 61.199219 13.898438 60.898438 C 13.832031 59.875 13.957031 58.980469 14.882812 58.597656 C 9.859375 57.554688 5.789062 54.898438 1.59375 52.808594 C 1.703125 51.792969 2.972656 51.527344 3.074219 50.507812 C 6.136719 49.90625 8.105469 49.605469 11.808594 49.460938 C 12.402344 49.136719 11.347656 48.546875 12.050781 48.148438 C 13.101562 48.300781 14.566406 48.253906 15.296875 47.46875 C 14.378906 47.234375 13.925781 47.421875 12.796875 47.160156 C 12.960938 46.78125 13.625 46.714844 13.789062 46.332031 C 12.203125 45.398438 14.726562 43.9375 13.761719 42.898438 C 14.1875 42.519531 15.171875 43.15625 16.011719 43.046875 C 14.699219 42.542969 17.351562 42.753906 17.753906 42.378906 C 17.648438 42.039062 15.667969 42.746094 16.257812 42.0625 C 13.757812 42.320312 14.492188 41.957031 12.507812 42.089844 C 12.8125 39.601562 16.652344 38.636719 20.71875 37.445312 C 20.148438 36.949219 19.203125 36.003906 19.703125 35.328125 C 19.363281 35.011719 18.304688 35.609375 17.707031 35.667969 C 17.707031 35.179688 18.351562 35.105469 18.449219 34.683594 C 17.855469 34.285156 17.984375 34.929688 17.199219 34.851562 C 17.9375 33.886719 19.292969 34.199219 20.441406 33.683594 C 19.304688 33.0625 18.117188 33.65625 16.695312 33.714844 C 16.800781 33.453125 17.476562 33.566406 17.191406 33.054688 C 16.480469 33.03125 16.703125 33.613281 15.695312 33.390625 C 15.570312 32.878906 16.457031 33.015625 16.1875 32.40625 C 14.898438 32.597656 13.328125 32.753906 12.191406 32.597656 C 12.183594 32 13.0625 31.96875 13.433594 31.609375 C 12.605469 31.34375 12.023438 31.777344 10.9375 31.789062 C 10.835938 31.070312 10.828125 30.3125 12.671875 30.140625 C 12.589844 29.761719 12.710938 29.511719 12.917969 29.320312 C 11.871094 28.859375 11.410156 29.140625 9.167969 29.019531 C 8.769531 28.285156 10.203125 27.738281 9.902344 27.214844 C 9.214844 26.019531 7.824219 26.246094 5.890625 26.261719 C 6.691406 25.601562 6.316406 25.175781 7.128906 24.617188 C 5.878906 24.125 6.800781 23.519531 6.863281 22.492188 C 7.3125 22.46875 7.390625 22.6875 7.863281 22.648438 C 8.429688 20.894531 12.800781 21.597656 13.335938 19.828125 C 12.183594 19.5 12.898438 17.929688 11.820312 17.542969 C 13.214844 15.402344 11.960938 11.554688 16.519531 11.453125 C 16.257812 10.75 15.441406 10.421875 14.015625 10.492188 C 14.246094 9.742188 13.484375 9.640625 12.515625 9.683594 C 12.914062 8.847656 13.0625 8.789062 12.003906 8.378906 C 13.136719 6.9375 12.84375 5.488281 13.964844 3.453125 C 24.289062 4.023438 38.605469 3.996094 47.699219 4.511719 C 47.941406 4.507812 47.890625 4.3125 47.949219 4.183594 C 49.925781 5.089844 52.988281 4.5625 54.941406 3.96875 C 54.808594 4.101562 54.683594 4.238281 54.695312 4.460938 C 55.785156 4.570312 56.101562 4.175781 57.191406 4.28125 C 59.339844 4.628906 67.300781 3.601562 72.421875 3.515625 C 78.042969 3.417969 83.894531 2.65625 86.652344 1.9375 C 87.542969 3.335938 90.402344 2.796875 93.402344 2.703125 C 94.160156 2.636719 93.828125 3.296875 94.40625 3.351562 C 95.933594 2.621094 100.386719 3.742188 102.144531 2.804688 C 102.292969 2.375 102.042969 2.214844 101.394531 2.316406 C 103.164062 1.738281 105.386719 2.375 107.386719 1.945312 C 107.222656 1.78125 106.808594 1.78125 106.882812 1.457031 C 110.300781 1.640625 113.925781 2.179688 116.136719 3.023438 C 117.351562 2.6875 118.105469 3.195312 119.136719 3.328125 C 122.109375 3.71875 126.59375 2.964844 130.128906 2.921875 C 141.019531 2.785156 151.722656 3.683594 161.855469 3.015625 C 162.019531 3.179688 162.433594 3.179688 162.359375 3.503906 C 170.269531 3.375 176.570312 2.785156 184.335938 2.847656 C 184.410156 2.417969 183.8125 2.429688 183.332031 2.363281 C 185.320312 2.1875 187.191406 2.796875 188.832031 3.140625 C 190.5625 1.996094 191.90625 3.296875 194.328125 3.265625 C 194.472656 3.625 193.855469 3.503906 193.832031 3.761719 C 201.960938 4.324219 209.226562 1.777344 217.558594 3.09375 C 217.878906 2.8125 218.378906 2.644531 219.054688 2.59375 C 218.820312 3.640625 216.507812 3.339844 215.316406 3.765625 C 219.144531 3.792969 223.765625 3.253906 228.308594 4.160156 C 229.886719 2.625 234.410156 3.558594 238.039062 3.105469 C 238.113281 3.371094 237.808594 3.390625 237.792969 3.601562 C 238.972656 3.585938 239.691406 3.875 240.796875 3.90625 C 240.8125 3.347656 239.867188 3.425781 239.042969 3.425781 C 241.035156 2.617188 243.832031 4.011719 244.78125 2.402344 C 246.132812 2.59375 247.042969 2.59375 247.777344 2.050781 C 247.847656 2.316406 247.542969 2.335938 247.53125 2.546875 C 254.445312 3.453125 262.316406 3.34375 271.265625 3.351562 C 271.148438 2.71875 269.542969 3.078125 269.011719 2.714844 C 277.496094 1.898438 287.066406 4.320312 295.742188 2.515625 C 294.5 2.007812 291.695312 2.105469 290.738281 1.902344 C 290.222656 1.808594 289.101562 2.117188 288.992188 1.75 C 291.84375 1.8125 292.824219 1.328125 295.234375 1.375 C 295.621094 1.191406 295.75 0.839844 296.480469 0.878906 C 295.941406 1.222656 296.609375 1.34375 296.488281 1.859375 C 297.570312 2.011719 297.871094 1.664062 298.484375 1.515625 C 299.855469 2.234375 301.121094 1.949219 302.734375 1.484375 C 311.402344 3.074219 322.476562 1.671875 332.214844 2.246094 C 329.863281 3.054688 326.367188 2.242188 324.226562 3.289062 C 324.660156 3.714844 326.707031 3.066406 326.234375 4.09375 C 327.300781 4.1875 327.246094 3.550781 328.226562 3.589844 C 328.550781 3.800781 328.550781 4.191406 328.234375 4.410156 C 330.265625 4.011719 334.027344 4.085938 336.480469 5.003906 C 335.734375 5.007812 334.984375 5.015625 334.230469 5.019531 C 339.425781 5.414062 347.441406 6.359375 353.476562 6.1875 C 354.019531 7.023438 354.535156 6.210938 356.488281 6.652344 Z M 176.851562 3.886719 C 178.089844 3.800781 179.394531 3.992188 178.351562 4.527344 C 179.371094 4.585938 179.628906 4.160156 180.347656 4.023438 C 179.289062 4.023438 179.75 3.65625 180.089844 3.371094 C 179.128906 3.972656 177 2.808594 176.851562 3.886719 Z M 298.25 2.824219 C 297.9375 2.789062 297.738281 2.574219 297.75 2.988281 C 299.03125 2.960938 300.25 2.8125 301 2.964844 C 300.921875 2.269531 298.835938 2.390625 298.25 2.824219 Z M 229.332031 6.933594 C 229.09375 7.53125 230.730469 7.273438 230.582031 6.925781 C 229.960938 6.910156 229.804688 6.625 229.332031 6.933594 Z M 231.082031 7.25 C 231.921875 7.136719 233.40625 7.441406 233.828125 7.066406 C 232.496094 6.984375 231.941406 6.535156 231.082031 7.25 Z M 193.917969 15.054688 C 194.632812 15.542969 196.046875 14.929688 196.171875 15.527344 C 196.914062 15.535156 197.4375 15.039062 197.921875 15.351562 C 197.917969 15.136719 197.917969 14.917969 197.914062 14.699219 C 196.675781 14.875 194.972656 14.753906 193.917969 15.054688 Z M 310.890625 23.027344 C 311.640625 22.859375 312.707031 22.890625 312.886719 22.359375 C 311.90625 22.378906 310.691406 22.246094 310.890625 23.027344 Z M 316.394531 24.132812 C 319.855469 23.808594 314.898438 23.660156 314.398438 24.148438 C 315.226562 24.109375 315.878906 24.179688 316.394531 24.132812 Z M 89.894531 34.804688 C 90.089844 34.9375 91.421875 34.96875 91.386719 34.46875 C 90.726562 34.476562 89.917969 34.390625 89.894531 34.804688 Z M 164.402344 43.75 C 164.722656 43.140625 162.917969 43.109375 162.652344 43.4375 C 163.632812 43.273438 163.289062 44 164.402344 43.75 Z M 168.398438 43.71875 C 170.621094 44 172.472656 43.710938 175.144531 43.832031 C 173.777344 43.601562 169.78125 43.089844 168.398438 43.71875 Z M 181.390625 43.789062 C 181 43.777344 180.527344 43.816406 180.640625 43.464844 C 179.128906 43.8125 176.832031 43.441406 175.644531 43.503906 C 178.390625 44.042969 179.695312 44.164062 181.390625 43.789062 Z M 155.167969 44.636719 C 153.46875 44.902344 151.070312 44.214844 150.421875 44.835938 C 153.351562 45.273438 159.824219 45.449219 163.160156 44.738281 C 160.519531 44.570312 158.90625 44.183594 156.417969 44.464844 C 158.355469 45.058594 154.679688 44.257812 154.667969 44.3125 C 154.945312 44.347656 155.054688 44.492188 155.167969 44.636719 Z M 183.144531 44.429688 C 183.730469 44.425781 184.308594 44.421875 184.890625 44.414062 C 184.992188 43.757812 183.195312 44.15625 183.144531 44.429688 Z M 163.914062 44.734375 C 163.757812 44.746094 163.617188 44.761719 163.664062 44.898438 C 164.757812 44.976562 168.160156 44.761719 165.410156 44.722656 C 164.890625 44.367188 164.601562 44.875 164.160156 44.570312 C 164.144531 44.46875 164.121094 44.375 163.90625 44.40625 C 163.910156 44.515625 163.910156 44.625 163.914062 44.734375 Z M 149.679688 45.820312 C 149.429688 46.152344 148.753906 46.203125 148.4375 46.484375 C 153.875 46.738281 163.152344 46.515625 169.417969 46.328125 C 163.871094 45.449219 156.242188 46.382812 149.679688 45.820312 Z M 329.097656 52.347656 C 331.664062 53.386719 335.386719 53.769531 338.597656 53.589844 C 335.320312 53.445312 331.722656 51.839844 329.097656 52.347656 Z M 318.117188 54.070312 C 318.917969 54.558594 321.039062 54.457031 321.863281 54.042969 C 321.796875 54.417969 321.925781 54.65625 322.367188 54.691406 C 322.796875 54.355469 322.179688 54.375 322.609375 54.035156 C 321.226562 53.390625 319.761719 53.722656 318.117188 54.070312 Z M 313.621094 54.265625 C 314.621094 54.203125 315.007812 54.546875 316.121094 54.410156 C 316.035156 53.574219 313.636719 53.925781 313.621094 54.265625 Z M 335.363281 55.578125 C 336.179688 55.714844 336.917969 55.6875 338.363281 55.71875 C 338.335938 54.964844 336.199219 55.4375 335.363281 55.578125 Z M 112.835938 63.113281 C 112.21875 63.394531 110.410156 62.820312 109.589844 63.304688 C 110.144531 63.796875 112.46875 63.703125 112.835938 63.113281 Z M 221.511719 63.949219 C 220.597656 64.078125 220.121094 63.558594 219.511719 63.96875 C 220.441406 64.707031 222.523438 64.476562 224.261719 64.421875 C 227.066406 64.332031 229.714844 63.917969 232.503906 64.199219 C 229.847656 63.300781 223.585938 63.800781 221.511719 63.949219 Z M 236.5 64 C 237.597656 64.199219 240.175781 64.015625 241.746094 63.636719 C 239.910156 63.832031 236.757812 63.023438 236.5 64 Z M 251.734375 63.5625 C 251.683594 64.289062 249.292969 63.507812 249.246094 64.234375 C 250.492188 64.496094 251.386719 64.269531 252.492188 64.050781 C 252.613281 64.480469 252.691406 64.597656 253.25 65.023438 C 258.445312 63.585938 263.484375 65.878906 268.484375 64.421875 C 262.976562 63.710938 257.230469 64.503906 251.734375 63.5625 Z M 205.777344 64.554688 C 204.503906 64.558594 202.890625 63.859375 202.285156 64.910156 C 206.777344 65.175781 211.246094 65.050781 215.765625 64.15625 C 212.519531 64.140625 208.917969 64.546875 205.777344 64.554688 Z M 205.777344 64.554688 " fill-opacity="1" fill-rule="evenodd"/></g></svg>