<svg xmlns="http://www.w3.org/2000/svg" xmlns:xlink="http://www.w3.org/1999/xlink" width="106" zoomAndPan="magnify" viewBox="0 0 55.5 79.499996" height="106" preserveAspectRatio="xMidYMid meet" version="1.0"><defs><clipPath id="4c5db87544"><path d="M 0.503906 0.125 L 54.765625 0.125 L 54.765625 77.425781 L 0.503906 77.425781 Z M 0.503906 0.125 " clip-rule="nonzero"/></clipPath><clipPath id="c6821fd179"><path d="M 0.503906 0.894531 L 54.765625 0.894531 L 54.765625 78.199219 L 0.503906 78.199219 Z M 0.503906 0.894531 " clip-rule="nonzero"/></clipPath></defs><g clip-path="url(#4c5db87544)"><path fill="#faf6f6" d="M 27.5625 0.125 C 12.621094 0.125 0.503906 12.242188 0.503906 27.183594 C 0.503906 47.480469 27.5625 77.4375 27.5625 77.4375 C 27.5625 77.4375 54.625 47.480469 54.625 27.183594 C 54.625 12.242188 42.503906 0.125 27.5625 0.125 Z M 27.5625 36.847656 C 22.230469 36.847656 17.898438 32.519531 17.898438 27.183594 C 17.898438 21.847656 22.230469 17.519531 27.5625 17.519531 C 32.898438 17.519531 37.226562 21.847656 37.226562 27.183594 C 37.226562 32.519531 32.898438 36.847656 27.5625 36.847656 Z M 27.5625 36.847656 " fill-opacity="1" fill-rule="nonzero"/></g><g clip-path="url(#c6821fd179)"><path fill="#faf6f6" d="M 27.5625 0.894531 C 12.621094 0.894531 0.503906 13.015625 0.503906 27.957031 C 0.503906 48.25 27.5625 78.210938 27.5625 78.210938 C 27.5625 78.210938 54.625 48.25 54.625 27.957031 C 54.625 13.015625 42.503906 0.894531 27.5625 0.894531 Z M 27.5625 37.621094 C 22.230469 37.621094 17.898438 33.292969 17.898438 27.957031 C 17.898438 22.621094 22.230469 18.292969 27.5625 18.292969 C 32.898438 18.292969 37.226562 22.621094 37.226562 27.957031 C 37.226562 33.292969 32.898438 37.621094 27.5625 37.621094 Z M 27.5625 37.621094 " fill-opacity="1" fill-rule="nonzero"/></g></svg>